<?xml version="1.0" encoding="UTF-8"?>
<svg viewBox="0 0 392 551" xmlns="http://www.w3.org/2000/svg">
 <path transform="rotate(30.873 164.58 265.47)" d="m313.6 487.4c-2.8987-4.6928-4.8111-9.4442-4.2491-10.56 1.3311-2.6429 9.7076 11.005 9.6002 15.641-0.057037 2.4726-1.5727 1.0341-5.3511-5.0811zm-36.037 7.8179c0.82028-1.7119 3.1981-4.1762 5.2857-5.4761 6.273-3.9069 16.108-19.075 22.583-34.825 6.6084-16.075 6.8357-29.956 0.72803-44.528-6.6898-15.962-22.67-26.206-35.802-22.948-3.3642 0.8345-4.827-0.4588-9.9399-8.7892-7.0454-11.477-6.543-12.123 9.7965-12.61 15.02-0.44708 32.59 5.9408 41.219 14.988 7.651 8.0209 15.222 24.117 17.148 36.459 2.5581 16.384-7.9673 40.484-26.878 61.546-8.0704 8.9897-26.664 21.453-24.142 16.183zm12.564-44.546c-3.4062-4.4546-17.054-24.894-30.329-45.42s-31.565-48.381-40.645-61.9l-16.51-24.58 7.3918-3.8247 7.3918-3.8247 8.2281 14.217c4.525 7.8196 14.345 25.763 21.822 39.875 7.4766 14.111 22.098 40.582 32.491 58.826 18.562 32.58 22.399 42.639 10.16 26.632zm-65.807-43.975c-30.58 10.684-52.775 6.3518-69.533-13.571-7.2845-8.66-12.133-28.492-10.254-41.94 2.7813-19.896 18.233-40.144 45.462-59.572 23.155-16.522 36.429-31.765 40.366-46.356 1.8872-6.9943 0.53511-18.145-2.8551-23.552-3.5622-5.6791-16.957-14.033-24.774-15.45-7.3684-1.3353-31.174 0.4202-34.658 2.5565-1.4233 0.87228-3.9731-1.8578-8.2616-8.8437l-6.2025-10.105 9.8259-4.5485c30.372-14.058 65.668-11.836 83.818 5.279 22.683 21.39 21.308 57.841-3.2945 87.379-5.2799 6.3392-16.87 16.465-30.697 26.819-17.043 12.762-23.659 18.789-28.423 25.889-11.301 16.843-9.851 38.882 3.0706 46.681 10.346 6.2444 22.545 5.9651 45.577-1.0434 1.5768-0.4798 4.4563 2.6437 8.4822 9.2044l6.0952 9.9299-6.2545 3.6577c-3.4405 2.0122-11.31 5.425-17.489 7.5839l8e-4 8e-4zm-39.54-120.17c-3.1335-2.7394-29.963-43.275-69.413-104.87l-36.212-56.542 13.682-8.3979 13.682-8.3976 10.891 19.949c47.238 86.53 68.3 125.54 74.219 137.48l6.8936 13.902-5.8729 4.3094c-3.828 2.809-6.569 3.7022-7.8699 2.5641zm-64.52-47.596c-31.335 13.747-60.885 15.736-83.274 5.6087-4.4053-1.9929-12.579-8.3472-18.164-14.121-17.215-17.796-21.915-34.57-16.448-58.691 7.3962-32.628 23.708-49.038 94.327-94.894 16.938-10.998 31.868-21.233 33.18-22.744 1.3126-1.5112 8.3321-3.3697 15.599-4.1301 7.2677-0.7604 15.937-2.3466 19.265-3.5249 8.6424-3.0596 9.9433 1.1077 2.346 7.5144-9.6397 8.1286-10.443 11.095-2.8744 10.603l6.2973-0.4093-3.6888 4.812c-6.8282 8.9065-15.96 14.912-31.65 20.811-20.757 7.8048-65.21 32.869-76.571 43.174-16.148 14.647-27.14 37.949-25.649 54.371 1.2285 13.526 16.996 28.512 33.712 32.042 13.254 2.7997 31.289-0.59215 45.994-8.65l13.217-7.2417 6.7376 12.054 6.7368 12.054-7.3138 4.702c-4.0234 2.5858-9.3235 5.5826-11.779 6.6596zm27.326-180.75c-0.55524-0.90559-2.0784-0.99122-3.3826-0.19023-1.3051 0.80092-2.3762 2.4782-2.3795 3.7272-0.003357 1.249 1.5181 1.3347 3.3826 0.19022 1.8645-1.1444 2.9356-2.8216 2.3795-3.7272zm21.708-0.3621c0.001678-0.97528 4.6995-4.4224 10.439-7.6599s10.922-6.8513 11.516-8.0307c0.59467-1.1793 1.7278-1.0904 2.5179 0.19775 1.1382 1.854-1.2623 3.8971-11.519 9.8042-7.126 4.1042-12.955 6.6641-12.954 5.6886v8.4e-5zm-113.27 30.528c-3.2815-3.6233-6.759-5.0846-12.139-5.1011-17.176-0.052841-21.144-18.952-7.1136-33.886 12.305-13.098 25.8-17.764 38.168-13.196 9.4545 3.4917 12.846 10.936 10.815 23.732-0.95869 6.0406-0.69532 12.182 0.58627 13.648 2.0952 2.3972 0.91843 3.5318-11.694 11.273l-14.024 8.6077-4.5991-5.0781h8e-5z" fill="#fff" stroke="#000" stroke-width="2"/>
</svg>
