<?xml version="1.0" encoding="UTF-8"?>
<svg viewBox="0 0 392 551" xmlns="http://www.w3.org/2000/svg">
 <path d="m373.64 540.02c-3.4558-5.5948-5.7363-11.26-5.0662-12.59 1.5876-3.1505 11.575 13.121 11.446 18.648-0.068359 2.9476-1.8753 1.2322-6.38-6.0587v-1.22e-4zm-42.966 9.3214c0.97717-2.0406 3.813-4.9785 6.3018-6.5288 7.4786-4.6578 19.205-22.742 26.925-41.52 7.8794-19.166 8.1502-35.715 0.86853-53.089-7.9765-19.032-27.03-31.244-42.685-27.36-4.0114 0.9953-5.7552-0.54675-11.851-10.479-8.3992-13.684-7.8007-14.454 11.68-15.035 17.908-0.53357 38.856 7.0832 49.144 17.87 9.1218 9.5637 18.148 28.754 20.445 43.47 3.0493 19.534-9.4988 48.268-32.045 73.379-9.6222 10.717-31.791 25.578-28.782 19.294h6.1e-5zm14.979-53.11c-4.0611-5.3109-20.333-29.679-36.16-54.152s-37.634-57.683-48.46-73.801l-19.684-29.305 8.8129-4.5602 8.813-4.5602 9.81 16.95c5.3955 9.3226 17.103 30.716 26.018 47.54 8.9142 16.824 26.346 48.386 38.738 70.136 22.131 38.845 26.706 50.838 12.112 31.752v-1.22e-4zm-78.459-52.43c-36.46 12.738-62.922 7.5733-82.902-16.18-8.6848-10.324-14.466-33.97-12.224-50.002 3.3157-23.722 21.738-47.862 54.202-71.025 27.607-19.697 43.433-37.872 48.127-55.268 2.25-8.3389 0.63834-21.634-3.404-28.08-4.2463-6.7711-20.217-16.731-29.537-18.42-8.7848-1.592-37.168 0.50102-41.322 3.0472-1.6969 1.0401-4.7374-2.2147-9.8497-10.544l-7.3951-12.048 11.714-5.4221c36.213-16.762 78.294-14.111 99.933 6.294 27.044 25.502 25.405 68.962-3.9281 104.18-6.295 7.5576-20.114 19.631-36.599 31.975-20.32 15.216-28.208 22.401-33.888 30.866-13.474 20.081-11.745 46.357 3.6609 55.656 12.335 7.4452 26.879 7.1124 54.34-1.2439 1.8805-0.57239 5.3127 3.1517 10.114 10.974l7.2669 11.839-7.4577 4.3613c-4.1016 2.3987-13.484 6.4681-20.852 9.0416l7e-4 8e-4zm-47.142-143.27c-3.7359-3.2664-35.724-51.596-82.757-125.03l-43.174-67.413 16.312-10.012 16.312-10.012 12.985 23.785c56.32 103.17 81.432 149.68 88.49 163.92l8.2187 16.576-7.0024 5.1382c-4.5638 3.3488-7.8316 4.4131-9.3831 3.0567v1.22e-4zm-76.924-56.747c-37.359 16.389-72.591 18.762-99.285 6.6864-5.2524-2.376-14.998-9.952-21.656-16.836-20.525-21.218-26.129-41.216-19.61-69.975 8.8182-38.901 28.266-58.466 112.46-113.14 20.193-13.112 37.995-25.315 39.559-27.117 1.5642-1.8018 9.9333-4.0176 18.598-4.9242 8.6646-0.90657 19.001-2.7977 22.969-4.2026 10.304-3.6478 11.854 1.3207 2.7966 8.9591-11.492 9.6914-12.451 13.228-3.4272 12.642l7.5088-0.488-4.3983 5.7372c-8.1407 10.619-19.03 17.779-37.735 24.812-24.748 9.3054-77.748 39.189-91.293 51.475-19.253 17.463-32.358 45.245-30.58 64.824 1.4647 16.126 20.264 33.994 40.194 38.203 15.802 3.3376 37.305-0.70638 54.837-10.313l15.757-8.6344 8.0329 14.372 8.0329 14.372-8.7206 5.6058c-4.7964 3.0832-11.116 6.6566-14.044 7.941v-1.37e-4zm32.58-215.5c-0.66263-1.0797-2.4777-1.1818-4.0335-0.22682-1.5558 0.95494-2.8324 2.9546-2.837 4.4438-0.003998 1.4892 1.8105 1.5913 4.0335 0.22682 2.223-1.3644 3.4997-3.3641 2.837-4.4438zm25.882-0.4316c0.002014-1.1629 5.6031-5.2727 12.446-9.1326 6.843-3.86 13.021-8.1685 13.73-9.5747 0.70847-1.406 2.0594-1.3 3.002 0.23577 1.3567 2.2104-1.5055 4.6464-13.734 11.689-8.4964 4.8933-15.446 7.9453-15.444 6.7823l1e-4 1e-4zm-135.05 36.398c-3.9124-4.3199-8.0585-6.0622-14.473-6.0819-20.478-0.062988-25.209-22.596-8.4813-40.401 14.671-15.617 30.761-21.179 45.506-15.734 11.272 4.163 15.317 13.038 12.894 28.295-1.1433 7.202-0.82886 14.525 0.69898 16.273 2.4983 2.8581 1.0951 4.2108-13.942 13.44l-16.72 10.262-5.4832-6.0543h6.1e-5z" fill="#00007f"/>
</svg>
