<?xml version="1.0" encoding="UTF-8"?>
<svg version="1.1" viewBox="0 0 227.78 302.02" xmlns="http://www.w3.org/2000/svg">
 <path d="m6.85 161.81c5.3681-7.1663-1.0192-20.145-2.8336-22.381m1.348-8.5725c4.3158 1.5123 12.475-26.409 7.6958-27.143m25.217 4.2402c-1.2001 5.9737-2.877 17.503-9.8006 35.817-1.9569 5.9752-6.849 17.117-8.233 22.008m186.91 0.10419c-2.0206-9.302-4.456-33.814-8.8736-39.757-4.4276-5.9566-12.487-13.649-21.23-17.753-9.9612-4.6765-20.414-5.3674-20.414-5.3674m66.278 27.422c-2.942-0.82932-3.4847 22.024 0.99611 22.317m-15.705-62.176c-4.5038 0.50179 5.1125 23.34 9.2277 21.215m-70.512 13.488c0.42623-9.4596 6.7968-28.447 31.047-33.826m-167.89-2.7746c3.5893 0.35802 1.273-28.355-2.0997-27.216m25.427-6.3898c2.5691 9.2528 5.4294 23.318 5.5991 32.98m104.54-25.771c-9.8507 0.63681-22.561-1.2465-31.513-4.4227m-21.363-49.073c5.7344 5.0944-15.662 19.145-17.974 14.676" fill="none" stroke="#000" stroke-width="2"/>
 <path d="m40.788 244.03c13.813 13.969 26.862 20.574 44.648 27.793m-24.601-28.143c-14.021-11.046-18.315-27.147-18.679-39.634-0.211-7.246 0.02193-8.4733 1.9122-10.367 2.809-2.8133 11.381-3.1727 16.227-0.68047 7.275 3.7416 6.5915-2.3445-0.844-7.5147-2.9559-2.0554-11.651-2.2885-20.119-0.53955-4.9857 1.0298-6.0416 0.96337-8.3102-0.52306-2.4339-1.5948-2.8289-2.2053-2.5987-9.5744 0.75155-24.054 11.828-32.662 21.111-41.043 8.7425-7.8929 24.238-15.197 30.605-10.514 14.695 10.808 13.667 39.329 2.495 51.959-5.3624 6.0224-10.188 14.19-10.201 17.265-5e-3 1.2375 0.21679 2.25 0.49322 2.25s2.1632-1.8381 4.1928-4.0846 5.6336-5.4217 8.0089-7.056c4.9059-3.3754 8.3406-9.3451 10.942-19.017 2.1811-8.1109 2.7964-8.842 7.4414-8.842 2.832 0 4.1267-0.53134 4.9238-2.0207 1.4395-2.6896 0.48036-3.9793-2.9593-3.9793-1.5566 0-3.8229-0.80383-5.0362-1.7863-5.4146-6.5156-3.4189-10.43-2.0156-15.696 6.1685-9.4941 19.353-18.375 28.79-13.615 4.9656 2.5045 7.6761 5.8441 9.6068 10.804 2.7781 7.1373-7.4755 25.754-13.527 26.293-1.0822 0.0963-3.6018-1.1051-5.5895-2.4558-6.3042-4.2838-7.1822-0.82354-1.781 7.0188l3.499 5.0803-2.033 7.4284c-6.394 23.363-5.723 34.233 5.0311 54.326 12.376 23.123 10.466 34.228-7.1567 35.934-17.305 1.6753-45.918-12.711-54.429-19.416zm76.699-59.342c-4.1746 0.38286-9.7852 1.1463-12.11-2.6033 12.083-19.103 15.883-34.465 21.5-56.47 15.077-3.1713 30.618-3.9309 35.811 13.5 3.9478 13.25 4.9757 30.228 2.5887 36.164-0.59026 1.4679-2.479 3.2473-4.2062 3.9627-4.2869 1.7757-10.602 9.2521-10.602 12.056 0 3.7909 0.92843 4.2379 4.5923 0.46572 3.3831-3.4831 8.0408-5.2338 11.931-4.4846 3.9748 0.76547 8.446 10.692 8.9344 19.836 0.51683 9.6747 0.53682 33.547 0.20099 35-2.5123 10.867-10.28 27.363-24.25 23-12.791-3.9949-19.248-5.2885-25.44-14.5-3.0276-4.5041-28.79-50.227-22.708-56.337 7.9309-7.9666 9.9235-1.931 13.758-9.5897zm1.9857-32.441c2.923 10.641 4.8538 22.118 11.314 31.116l-8.2031 1.3316c1.6 1.8219 2.9233 3.3594 4.7477 4.7273 2.4385 1.8283 3.814 2.4515 6.298 2.079 2.6671-0.39996 4.1913 0.23755 8.5186 3.5631 8.705 6.6899 9.9131 4.6842 2.6254-4.525-4.781-6.0414-8.7422-13.297-12.393-19.425-8.1436-13.668-8.0415-26.512-8.5237-33.804m24.253-80.784c-9.4796 2.0458-19.682 5.4967-24.612 6.0895-5.2892-6.3561-10.414-14.804-20.478-13.094-5.0205 0.85294-9.5741 4.6462-12.944 11.976-5.5073 11.98-4.159 22.752 0.3976 36.417-3.0483 4.4694-15.105 22.621-17.458 21.199-5.64-3.4094-19.78-22.314-21.115-27.9-1.0012-4.1903-1.7909-28.453 2.4282-38.224" fill="none" stroke="#000" stroke-width="2"/>
 <path d="m60.937 299.92c-7.6781-2.5519-13.406-5.9897-15.75-9.4538-2.1113-3.1195-2.2577-4.4248-2.375-21.176-0.069-9.8187-0.2375-18.302-0.375-18.852s-0.3063-2.116-0.375-3.4801c-0.076-1.5081-2.4222-5.0149-5.9866-8.948-6.7728-7.4736-13.391-19.549-16.375-29.876-1.5852-5.4867-2.095-10.166-2.1461-19.696-0.063-11.757 0.427-15.093 4.0025-27.25 0.6513-2.2145-2.0801-2.303-9.6521-0.3129-4.9746 1.3074-5.6163 1.2849-7.1119-0.25-4.3702-4.4848-5.1909-18.007-1.267-20.876 2.3397-1.7108 8.2927-3.3301 12.876-3.5024 4.7231-0.17756 4.4916-1.4714-0.4114-2.2998-2.1705-0.3667-6.108-1.4396-8.75-2.3841-4.3422-1.5524-4.8838-2.0972-5.6383-5.6712-0.6503-3.0807-0.3661-5.203 1.2872-9.611 4.7021-12.537 7.9416-14.592 17.355-11.011 10.253 3.9013 16.898 5.4535 17.712 4.1368 0.4138-0.66957 0.826-6.1724 0.9159-12.229l0.1635-11.011-4.7993 0.64061c-2.6396 0.35234-5.6993 0.80717-6.7993 1.0107-6.6723 1.2347-15.416 1.6017-17.678 0.74181-2.9197-1.1101-5.2912-6.4953-6.319-14.349-0.6742-5.1516 1.39-11.132 4.3774-12.683 2.4898-1.2925 14.057-3.8968 19.424-4.3735 4.0235-0.35729 5.429-1.0768 8.6485-4.4273 5.5844-5.8117 13.884-7.6181 23.676-5.1526 2.9772 0.74967 5.2346 2.1114 6.6309 4 2.0662 2.7947 5.0157 3.6114 7.4516 2.0633 1.3437-0.85392 5.2561-12.533 5.2764-15.75 7e-3 -1.1275-0.39048-2.4775-0.88351-3-0.49302-0.5225-1.8976-3.3106-3.1213-6.1958l-2.2249-5.2458c0.98346-8.5032 7.1574-13.446 14.255-14.626 4.1124-0.65761 4.2126-0.5996 10.321 5.9769 3.3928 3.6525 6.6696 6.641 7.2818 6.641 1.193 0 4.3849-7.461 4.3849-10.25 0-0.92545 0.74979-3.2549 1.6662-5.1767 2.131-4.4688 5.7688-5.8189 12.328-4.575 11.456 2.1726 14.829 5.4359 12.888 12.468-0.55236 2.0005-0.83733 4.8513-0.63326 6.3351 0.33892 2.4645 0.44548 2.5248 1.2316 0.69788 0.99222-2.306 4.0746-6.2044 9.6857-12.25 3.1405-3.3836 4.6336-4.25 7.3244-4.25 4.5468 0 7.3613 1.2296 11.384 4.9736 2.949 2.7446 3.3111 3.6094 2.8744 6.865-0.5891 4.3921-3.9807 10.643-6.1008 14.039-2.2751 3.6437-2.9098 6.0904 1.9074 16.134l4.6648 9.7262c8.6165-2.5942 28.337-0.82295 31.498 3.9537 1.3398 2.0247 1.8535 5.3137 2.1292 13.369 0.3507 10.246 0.27145 10.743-1.9632 12.308-1.2808 0.89708-3.4692 1.631-4.8632 1.631-2.5416 0-18.965 4.2296-20.781 5.3518-1.1632 0.71891 1.7416 15.648 3.0447 15.648 0.47707 0 3.6309-2.1375 7.0084-4.75 11.592-8.9664 18.816-13.25 22.345-13.25 2.9373 0 3.7847 0.65568 6.9604 5.4505 3.8067 5.7474 3.7295 9.535 3.9015 15.888l-9.7427 7.0049c-5.3585 3.8527-9.5928 7.1548-9.4097 7.3379 0.18315 0.18315 5.4674 1.0411 11.743 1.9066 16.049 2.2133 16.251 2.4042 16.704 10.599 0.29523 5.3427-0.8586 9.4258-2.817 14.113l-9.9885-0.65459c-10.451-0.68492-9.2768-1.1705-8.4684 3.9646 0.23206 1.4741 1.1221 6.447 1.9946 11.476 0.87248 5.0286 2.1796 11.004 2.9048 13.279 3.3875 10.627 4.6153 15.479 4.969 19.636 0.21055 2.475 0.99677 9.45 1.7472 15.5 0.75039 6.05 1.3643 20 1.3643 31 0 19.972-4e-3 20.007-2.7243 24.634-3.3818 5.7528-11.246 12.926-17.279 15.762-9.2667 4.3558-22.996 6.0898-33.11 4.1816-2.6876-0.50705-9.2592-1.4074-14.604-2.0007s-11.869-1.757-14.5-2.5859-6.3578-2.0055-8.2828-2.6147-6.6311-2.463-10.458-4.1196-8.1019-3.1074-9.5-3.2239c-1.3981-0.11652-3.2169-0.47742-4.0419-0.802-0.825-0.32459-5.325-1.4354-10-2.4684l-8.5-1.8783 0.32399 8.5578c0.4297 11.35-1.0845 15.952-6.047 18.377-5.0966 2.4908-13.261 2.9964-18.777 1.163z" fill="none" stroke="#000" stroke-linejoin="round" stroke-width="2"/>
 <path d="m67.889 53.297 4.0509 37.538" color="#000000" fill="none" stroke="#000" stroke-width="2"/>
</svg>
