<?xml version='1.0' encoding='utf-8'?>
<svg xmlns="http://www.w3.org/2000/svg" viewBox="0 0 251.16 432.21">
 <g fill-rule="evenodd">
  <path d="m126.4 102.96h1.561v2.599c-2.104 0.583-2.571-1.596-1.561-2.599z"/>
  <path d="m124.84 103.48v2.079c-1.418 0.378-1.046-1.033-2.079-1.04 0.126-0.914 0.895-1.184 2.079-1.039z"/>
  <path d="m138.36 262.54c2.678-0.53 3.135 3.115 2.08 4.679-0.618-1.635-1.954-2.553-2.08-4.679z"/>
  <path d="m98.335 263.58c1.08 0.134 0.142 2.283 1.04 2.598 1.367 0.155 0.409-2.016 2.079-1.558 0.731 1.239-0.829 3.781-2.599 4.158-0.033005-3.505-1.642 0.29001-3.119 0-0.318-2.686-1.428 0.81299-3.119 0 0.174-4.074 4.981-2.921 5.718-5.198z"/>
  <path d="m92.617 265.14c0.291 2.159-2.019 3.438-3.119 2.598 0.162-1.745 1.739-2.074 3.119-2.598z"/>
  <path d="m137.32 266.17h1.559c0.31599 1.302 2.192 4.278-0.521 4.16 0.63698-2.37-1.425-2.04-1.038-4.16z"/>
  <path d="m135.76 268.77c1.704 0.375 2.029 2.128 2.078 4.157-1.666-0.452-1.626 0.79999-2.078 1.56-0.83101-0.729-1.328-1.789-1.56-3.119 2.95 0.50302 0.44299-2.025 1.56-2.598z"/>
  <path d="m162.27 271.37c1.979-0.388 1.124 3.367-0.519 2.601-0.431-1.471 0.73099-1.348 0.519-2.601z"/>
  <path d="m160.19 272.41c0.134 2.038-0.506 3.307-1.561 4.157-1.38-1.247 0.026016-4.102 1.561-4.157z"/>
  <path d="m156.55 272.93c1.057 1.432-0.083008 5.097-2.08 5.198-0.269-2.694 1.629-3.223 2.08-5.198z"/>
  <path d="m152.39 275.01h1.56c0.28101 2.358-1.043 3.112-1.56 4.678-0.981 0.22998-3.132-0.70602-2.598 1.039-1.186 0.146-1.954-0.12402-2.079-1.039-1.069 0.14398-0.489 1.937-1.56 2.079-2.49-1.279-0.968-1.114-4.158-0.51999 0.79999-1.278 0.625-3.532 2.599-3.639v2.079c0.77199-0.61401 2.322-0.449 2.079-2.079 1.397-0.358 1.004 1.074 1.56 1.561 1.501-0.40701 1.298-2.516 2.078-3.639 1.413-0.37198-0.371 2.45 1.041 2.078 0.771-0.44098 0.75099-1.673 1.038-2.598z"/>
  <path d="m120.69 426.79c1.624-0.23801 1.662 1.11 1.559 2.601-1.557 0.036987-2.637-1.531-1.559-2.601z"/>
  <path d="m251.16 41.623c-1.504 3.869-2.952 7.791-6.239 9.876 1.015 1.759 3.933 1.612 5.198 3.119-3.933 5.596-12.373 6.686-19.232 9.356 1.612 1.334 5.364 0.528 5.719 3.119-1.283 3.048-5.27 3.395-8.837 4.158 0.41499 1.665 1.536 2.623 1.559 4.678-2.639 2.385-5.947 4.102-11.434 3.639-0.86202 0.561 1.301 2.475 0.519 4.678-2.699 2.891-8.408 1.948-12.475 1.039-0.701 1.075 1.944 3.234 1.039 6.238-2.322 0.277-3.634 1.563-6.756 1.039-1.981 0.099007-0.32001 3.84-1.56 4.679-2.604 0.35001-4.024-0.482-6.239-0.52 0.068985 2.356 1.092 3.762 1.56 5.717-0.048004 2.03-2.537 1.621-2.598 3.639 0.203 2.741 1.681 4.21 1.559 7.277-1.686 1.779-5.793 1.138-7.797 2.599 1.816 1.823 1.87 5.408 2.078 8.836-2.153 1.194-4.679 1.142-6.756 0 0.33301 2.785 2.823 3.414 3.639 5.718-5.737 3.976-11.992-0.774-15.074-4.159 0.257 3.901 1.399 6.917 2.079 10.396-3.521 2.257-8.139-1.386-10.396-3.638-1.251 2.5 0.567 4.986-0.519 7.796-5.99-1.461-10.006-4.896-10.917-11.436-1.509 0.744-1.288 3.216-2.599 4.159-6.312-1.313-9.528-5.719-10.915-11.956-1.656 1.356 1.524 2.252 0.519 4.678-4.168 7.29 0.506 18.883-3.119 25.471 0.685 1.567 0.054001 4.452 1.041 5.718-2.108 13.839-0.61499 31.911-1.041 46.261-0.351 11.85-0.81599 24.269-0.519 36.907 1.273 0.80501 3.384 0.774 5.197 1.037 3.676 3.949 6.493 8.757 6.758 16.115-0.64 1.229-1.546 3.911-0.521 5.197 4.015-0.996 7.458-4.709 10.917-7.797 9.021-8.051 20.647-18.593 26.509-29.628 4.652-8.758 10.342-30.313 0.52-38.985-1.897 0.68799-2.347 2.493-3.639 0-5.102 0.099991-6.164 4.99-9.355 6.238-3.049 1.192-7.338 0.817-9.877 0.52-10.628-1.249-19.547-10.855-23.39-17.153 1.173-3.119 0.084991-3.258 0.519-6.238 2.071-1.814 3.569-1.907 8.317-0.51999 2.005 0.58499 3.671 1.815 5.198 2.079 6.289 1.084 13.101-0.143 16.113 3.119 0.314 1.245 0.74699 2.372 0.521 4.158 7.144 0.96101 11.419-5.562 19.232-4.158 15.507 2.787 19.744 24.702 16.633 44.182-2.301 14.403-11.62 24.852-15.594 33.787-1.173 0.561-1.515 1.951-2.599 2.599-0.711 3.889-3.453 6.739-5.719 9.357-2.258 2.609-4.721 5.49-7.276 7.797-0.701 0.63098-2.836 0.21399-2.079 2.078-8.926 3.438-16.03 11.265-28.068 9.877 2.953 6.231 10.302 13.167 9.354 21.83-0.43201 3.96-3.373 8.12-7.795 9.877 0.71399 3.636 0.476 5.533 0 9.355 0.93799 1.38 3.221 1.696 4.678 3.12 1.863 1.818 7.059 10.861 8.315 14.034 2.531 6.389 1.055 11.215-2.598 16.113-3.539 4.745-7.615 6.407-14.556 7.798 0.875 3.835 0.436 8.49-1.559 10.915 1.176 3.687 6.354 8.497 7.276 13.516 1.543 8.379-2.146 14.909-7.797 18.191-1.796-0.80301-4.285-0.91202-4.678-3.119 0.68401-0.66598 1.917-0.66598 2.6 0 1.594-1.575 3.77-2.959 4.157-4.678 1.498-6.604-5.755-9.761-8.316-13.514 1.636 8.787-2.38 18.891 0.52101 27.028 1.012 2.842 5.145 4.719 5.198 8.837 0.10899 8.639-11.693 10-20.792 7.277-1.055-1.197-1.865-2.64-3.119-3.639-1.439-7.33 3.921-7.859 4.678-12.995-8.598 1.298-14.871-6.392-15.074-15.073-0.28101-12.049 9.675-23.066 14.554-27.549-8.478-0.41998-16.624-6.303-11.955-15.075-2.491-2.219-5.759-3.48-8.317-6.758-2.204-2.822-5.088-7.884-5.718-9.876-3.577-11.317 7.771-18.88 14.554-24.43h2.599c1.252-2.56 2.326-5.299 4.158-7.277-6.49-4.661-10.708-18.941-4.678-27.029-1.065-2.573-2.167-5.111-3.119-7.797-1.475 1.125-3.903 1.296-5.198 2.599-15.887 1.127-28.534-6.926-36.386-17.673-5.04-6.897-8.9-16.832-11.955-27.029-0.813-2.714-1.663-7.334-3.119-10.396-0.085003-7.416-0.958-14.959 0-21.832 1.465-10.502 7.509-17.758 12.475-24.431 4.744-0.635 8.154-3.986 12.476-3.638 4.555 0.366 6.558 4.976 10.916 5.718 2.595-0.52499 2.728-3.51 4.159-5.198 3.859-1.686 8.823-2.266 12.475-4.159 5.017 2.285 14.306-1.112 18.712 2.599 0.83 8.89-7.484 11.725-14.034 15.594-4.573 2.701-6.993 5.151-12.995 5.198-4.161 0.031998-8.046-1.856-11.955-3.119-1.026-1.054-1.883-2.276-3.119-3.12-12.81-4.042-13.148 12.364-10.916 22.872 2.164 10.188 4.883 21.551 9.356 30.148 2.983 5.733 4.594 7.922 9.356 11.956 1.788 1.515 3.267 3.548 4.678 4.157 4.376 1.892 8.25 1.37 10.916 0.52101 6.317-2.014 9.863-7.872 19.232-10.916 0.65601-21.51-0.042-40.565 0.52-61.856 0.054001-2.051 0.926-4.068 1.04-6.237 0.461-8.741-0.434-16.805 0-27.029 0.19-4.48-0.050003-8.74-1.04-11.955-0.769-2.497 0.081001-7.569-3.638-7.797-1.07 1.355-0.981 3.87-2.599 4.678-1.986-0.26601-2.796-1.709-4.678-2.08-1.12 0.439-0.839 2.28-1.559 3.119-1.771 0.037994-1.937-1.529-2.599-2.599-2.396 3.668-5.869 6.26-10.916 7.277-1.188-1.065 0.14899-4.654-1.04-5.718-3.32 0.31801-4.889 2.388-9.356 1.559-0.691-1.561-0.528-3.976-0.52-6.237-4.225 2.442-9.169 0.961-12.995-1.04 0.843-3.662 3.941-5.069 4.678-8.837-3.309-1.047-6.083 2.919-10.396 2.599-0.338-2.244 0.898-2.914 1.56-4.158-0.805-0.92799-3.12-0.34499-3.639-1.56-0.073997-3.539 0.002003-6.928 1.56-8.836 0.251-1.306-2.383 1.253-2.599-0.52 0.763-5.647 5.334-7.488 8.836-10.396-6.598-0.856-15.331 2.063-19.232-2.079-1.641-0.254-1.835 0.937-3.638 0.521-1.678 0.465-0.73-1.696-1.56-2.08-4.182-0.035004-9.205-3.574-12.995-5.718-0.973-1.126 0.463-2.994 1.56-3.639h-5.718c-2.028-2.189-6.633-3.185-5.718-6.757-3.53-1.148-5.383-3.974-8.316-5.718 0.889-3.616 6.36-2.65 9.356-4.159-9.01-0.346-15.931-2.781-19.232-8.836-0.34-2.747 2.479-1.798 2.599-3.119 0.259-2.841-7.247-3.461-6.238-8.316 6.544-0.121 12.322-2.303 19.752-0.52 3.489 0.837 6.907 3.146 10.396 4.158 1.38 0.4 3.158 0.175 4.678 0.52 5.478 1.242 15.115 3.562 19.752 4.679 1.924-1.297-1.976-1.094-1.04-3.119 4.298-0.139 6.166 2.151 10.916 1.56 11.277 4.885 23.91 6.257 33.267 14.034 1.751 1.455 4.411 3.059 5.198 4.678 3.501 7.199-1.833 14.851 0 23.391 1.086 5.061 9.985 11.933 15.074 8.836 0.115-1.673-0.919-2.199-0.52-4.158 3.175-5.566 16.061-6.455 18.193 0.52 0.438 2.171-1.012 2.455-1.041 4.158 1.24 2.006 3.796 0.951 5.198 0.52 2.244-0.689 6.078-4.275 7.278-5.718 1.505-1.811 4.979-7.695 4.678-10.396-0.278-2.483-3.631-4.025-4.678-6.238-1.435-3.025-0.19499-5.012-2.08-7.276 5.026-10.482 19.711-16.348 33.267-19.232 3.831-0.815 6.953-0.703 9.877-2.08 2.398-1.129 3.887-3.199 6.758-3.119 0.716 0.669 0.51401 2.258 0.519 3.639 13.173-0.786 31.638-4.856 44.702-10.396 4.425-1.869 6.419-5.056 10.919-2.593zm-46.261 14.555c-3.927 0.767-7.95 0.405-9.876 2.599 1.378 1.967 5.416-1.329 5.717 1.039-3.545 0.439-6.624 1.346-8.317 3.638 7.633-1.019 17.965-3.796 28.069-5.717 12.378-2.353 24.805-3.029 27.03-13.515-0.688-0.006001-0.476-0.911-1.04-1.039-11.905 6.23-26.938 10.133-41.583 12.995zm-153.34 0.519c-6.149-1.958-12.049-2.059-18.193-3.638-0.872-0.225-1.236-1.291-2.08-1.56-1.442-0.46-3.012-0.018002-4.677-0.52-1.231-0.371-2.411-1.694-3.639-2.079-6.506-2.039-12.148-2.794-19.232-1.04 4.965 8.03 15.995 9.995 27.029 11.955 1.602 0.389 0.633-1.792 2.599-1.039 0.021999 0.715-0.245 1.141-0.52 1.559 6.997 0.312 14.353 1.19 20.271 1.04 1.746-0.043999 4.841 0.233 5.718-1.56-1.157-1.788-5.256-0.635-7.277-1.559-0.007999-0.76 2.193-1.647 0.001003-1.559zm185.57-0.519c-0.883 0.261-2.258-0.178-3.12 0-2.276 0.47-4.503 1.579-6.757 2.079-2.393 0.53-5.271 0.364-6.758 2.079 3.242 1.842 7.95 2.391 11.437 1.56 5.077-1.211 11.896-4.395 14.034-7.277-2.804-2.411-5.645 0.616-8.836 1.559zm-173.09 7.276c2.949 2.199 8.459 1.549 9.876 5.718-3.018 2.181-10.245 0.151-12.475 3.12 0.87 2.941 5.181 2.443 5.718 5.718-0.893 1.012-2.237 1.574-2.599 3.119 4.511 2.726 9.634-1.627 12.995 0.52-1.047 3.978-6.258 3.791-6.237 8.836 1.626 0.106 3.815-0.351 4.678 0.52-0.474 1.268-1.961 3.084-1.04 4.159 1.18-0.345 4.359-1.344 4.678 0.52 0.098999 2.179-2.551 1.607-2.079 4.159 0.411 1.668 1.887 2.271 2.599 3.639 2.01 0.278 2.537-0.928 4.678-0.52 1.588 1.389-0.161 2.901 1.039 4.678 2.091 0.358 2.968-0.498 4.679-0.52 1.588 0.491 1.629 2.529 3.638 2.599h4.678c3.228 3.369 11.785 3.553 16.634 3.639-0.028999-2.398 0.23-5.083-0.52-6.758-7.895-1.758-13.361-5.441-14.555-12.475-0.741-4.372 0.945-8.655 1.04-13.515 0.179-9.224-4.427-11.662-9.876-15.074-3.924-2.458-7.18-3.462-11.955-4.678-7.943-2.022-14.87-5.135-21.312-6.757 1.287 3.571 3.439 7.654 5.718 9.353zm94.603 2.08c-0.080002 2.362-3.662 3.939-2.599 5.718 1.082-1.016 3.441-3.462 5.198-2.08-1.887 1.233-4.261 1.978-5.198 4.159 2.043-0.571 4.692-3.259 7.276-1.56-1.243 1.008-3.67 0.834-4.158 2.599 1.892-0.208 4.457-2.448 6.238-1.04-0.746 1.507-3.555 0.951-4.158 2.599 2.488 0.899 4.129-1.722 5.198-0.52-0.267 1.641-2.375 1.438-3.64 2.079-0.618 2.407 2.19-0.911 2.6 1.04-1.901 0.696-3.073 2.125-3.638 4.158 1.883-0.513 2.943-1.755 5.197-0.52-0.791 0.941-3.564-0.098999-3.119 2.08 1.367-0.539 3.189-0.622 5.198-0.52-2.052 1.399-0.145 3.898-3.639 4.158-0.138 1.697 2.018 1.102 2.079 2.599-0.54001 1.192-3.712-0.246-4.159 1.04 0.77199 0.614 2.324 0.449 2.08 2.079-0.554 1.006-2.395 0.72501-3.119 1.56 0.74899 0.291 1.269 0.811 1.56 1.56-1.589-0.375-1.894 0.531-3.119 0.52-0.42999 1.469 0.733 1.346 0.521 2.599-1.224-0.012001-1.531 0.895-3.119 0.52-0.49699 0.968 1.557 1.737 0 2.079-0.90599 0.040001-1.617-0.116-2.079-0.52-0.49699 0.968 1.556 1.737 0 2.079-1.591 0.377-1.529-0.897-3.118-0.52-0.644 1.682 1.681 0.397 1.038 2.079-2.588-0.14-2.598-0.13-2.078 2.079-2.328-1.452-1.193 0.477-2.6 1.04-1.031-1.778-1.845 0.612-3.118 0.52-0.199-0.014999-1.094-1.037-1.56-1.04-0.431-0.001999-3.17 2.76-3.119-0.521 3.391-0.594 5.558-2.412 8.836-3.119-0.27701-1.838 0.44099-2.678 1.561-3.119 5.227-1.356 8.825-4.342 8.836-10.916 1.723-0.356 2.356-1.802 2.599-3.638-0.34401-2.603-3.521-2.369-4.158-4.679 1.22-0.859 1.126-3.032 1.041-5.198-1.52-2.119-6.536-0.743-8.317-2.599-0.041-2.654 3.576-4.375 2.599-6.237-2.222 2.109-5.071 3.591-6.757 6.237 0.147 5.637 3.411 9.166 5.718 11.956 0.72 0.87 0.722 3.354 0.519 4.678-1.204 7.892-9.299 14.355-16.113 17.673 0.39099 5.588-2.334 8.062-4.157 11.436 1.407 0.745 1.848-1.082 4.157 0 1.306 5.278 2.375 10.794 8.837 10.916 0.38501-5.263 2.945-14.081-2.079-16.114 0.966 4.351-0.974 7.136-1.56 8.836-0.43001 1.246 0.653 4.289-1.56 3.639-1.121-4.001 3.499-7.611 0.521-11.436-0.22 0.994-0.188 2.237-1.56 2.079 0.146-1.185-0.125-1.954-1.04-2.079 0.147 1.359-0.189 2.235-1.56 2.079 0.55701-1.349 0.33101-3.481 1.56-4.158 3.406-0.702 3.5-0.885 6.758 0 2.029-1.816 3.339-1.23 6.236-0.52 2.005-1.677 2.562-3.037 6.238-2.08 2.296-1.918 3.059-3.546 7.277-2.599 0.453-2.067 0.453-2.611 0-4.678 1.639-1.134 4.294-1.25 6.758-1.56 2.552-1.779 2.455-6.208 5.197-7.796-0.63699-3.583 1.887-4.005 2.079-6.758-0.009995-2.243-2.59-1.916-2.599-4.158 3.733 0.797 5.887-0.381 9.356-1.04-0.543-1.189-0.329-3.135-1.039-4.158-0.36099-1.025-2.901 0.127-3.12-1.04 2.929-2.271 8.367-2.03 8.838-6.757-7.507-2.114-16.086 1.444-21.312 1.56 3.02-2.525 7.608-3.48 12.995-3.639 5.6-2.891 9.953-7.026 10.915-14.554-11.128 4.468-25.587 5.602-35.346 11.438zm-150.74-10.396c-0.145 1.068-1.389 1.037-2.08 1.56 3.523 6.007 11.918 7.142 20.272 8.317 1.791-2.369 6.861-1.456 9.876-2.599-10.554-1.229-20.296-3.269-28.068-7.278zm219.35 8.836c-9.01-3.487-21.156-1.872-30.667 0-2.418 0.476-5.077 1.201-6.758 2.599 2.799 0.719 5.789-0.625 7.796 0-1.281 1.664-5.154 0.737-6.236 2.599 1.487-0.102 2.836-0.063995 2.598 1.56 14.671-3.405 30.444 2.765 40.544-3.639-3.064 0.706-4.667-2.109-7.277-3.119zm-186.09-1.559c2.872 0.831 14.156 2.803 17.673 0.52-6.256 0.223-10.23-0.069-17.673-0.52zm23.391 3.638c0.403-0.116 1.025-0.014 1.04-0.52-14.364 0.927-33.347-4.158-43.663 3.119-1.626 0.106-3.816-0.351-4.678 0.52-0.432 2.797 4.774 4.154 7.797 5.198 9.804-6.483 30.258-2.315 42.624-6.237-3.177-0.288-6.297-0.634-8.837-1.56 1.768-0.6 3.673-1.637 5.717-0.52zm146.58 5.718c-7.299-0.422-14.594-1.648-18.714 1.56 11.479 0.002998 25.017 6.521 34.827 1.56-1.785-4.947-10.07-2.769-16.113-3.12zm-186.61 5.198c1.594 1.006 2.608 2.59 4.158 3.639 2.833 0.112 6.249-0.358 8.316 0.52 6.032-4.191 16.36-4.086 24.95-5.718-0.806-2.313-5.324-0.913-7.277-2.08 0.639-1.093 3.129-0.335 3.639-1.56-13.295 0.792-25.158-0.19099-33.786 5.199zm186.61 0c-1.739-0.292-5.567 0.119-9.357-0.52-4.661-0.786-12.931-3.255-14.034 1.56 11.511-0.454 18.132 8.46 29.108 5.197-0.43901-2.871-3.138-5.803-5.717-6.237zm-176.21 8.317c3.44 1.588 5.897 4.515 10.396 3.639 1.37-0.362 1.099-2.367 2.599-2.599 3.836-4.827 14.126-3.2 16.633-9.356-9.857 1.561-24.241 1.915-29.628 8.316zm167.37-1.559c-1.781-1.601-12.736-5.572-14.034-3.119 2.113 0.659 3.866 1.678 5.198 3.119-1.862-0.043999-3.005-0.809-4.68-1.04 0.80299 2.07 3.382 4.867 5.719 6.238 2.818 1.653 7.106 2.82 10.396 1.04-0.19101-2.078-1.059-4.855-2.599-6.238zm-140.86 0.52c0.223-0.816 1.635-0.444 1.04-2.08-6.31 1.833-13.093 3.195-15.074 9.357 8.986 1.887 18.085-3.266 23.911-7.797-3.813-0.521-4.224 2.36-7.797 2.079 3.208-3.5 0.659-0.388-2.08-1.559zm120.59 5.197c0.543 1.979 2.33 1.019 3.64 1.559 3.818 1.577 6.604 4.71 11.435 4.678 1.084-1.145-0.821-2.232-0.519-4.158-5.04-0.968-6.701-7.697-11.956-6.758-0.155 1.022 0.701 1.031 1.04 1.56-1.591-0.377-1.529 0.897-3.12 0.52-0.326 2.255 4.475 2.079 3.12 3.638-0.78799-0.772-2.282-0.837-3.64-1.039zm-125.79 4.159c4.118 0.782 8.762-0.42799 12.995-1.04-0.472-1.42 1.411-4.295 0.52-5.717-3.901 2.855-8.617 4.897-13.515 6.757zm135.15 8.316c-0.102-6.314-4.885-10.705-10.916-9.356 5.238 1.519 7.858 5.656 10.916 9.356zm-11.955-6.237c-0.40999 2.143 2.487 0.977 2.078 3.119-2.244 0.621-2.913-1.703-4.158-0.52 2.609 3.456 8.851 3.277 11.435 6.757-0.49-5.919-3.619-9.202-8.315-10.915-0.254 0.614-0.55701 1.178-1.04 1.559zm-106.56 7.277c2.421-1.006-0.493-0.725-1.039-1.56 0.311-1.617 4.644-1.91 3.119-3.638-0.669 0.418-2.917 1.868-3.119 1.04 0.496-0.89 1.725-1.048 2.079-2.079-4.253-0.715-7.902 3.479-9.876 6.757 3.887 2.214-2.163 7.757 0 11.435 3.316-0.496 5.126-2.497 7.277-4.158 3.878-0.8 6.925-2.431 8.316-5.718-0.816-0.050003-1.802 0.069-1.56-1.04-1.6-0.387-0.999 1.427-2.599 1.04 1.609-4.529 0.193-0.312-2.598-2.079zm46.262-0.52c1.252 0.213 1.13-0.949 2.599-0.52-0.376 1.589 0.896 1.529 0.52 3.119-0.982 0.117-1.146-0.586-2.079-0.52-1.017 6.73 0.817 14.185 8.317 14.035 2.382-3.454 6.598-7.8 4.677-12.475-1.562-1.157-1.813-0.61301-4.157-0.52 0.29999-0.914-0.62901-3.054 0.519-3.119 1.688 1.389 2.724-0.286 4.16-1.559-2.087-5.266-13.994-4.714-14.556 1.559zm58.218-1.559c-0.716-0.022995-1.142 0.245-1.559 0.52-1.269 1.221 0.579 1.164 1.038 2.08-0.93199 1.318-3.189-1.232-3.639 1.039 8.759-0.30299 7.579 12.622 17.154 8.317-0.577-7.74-7.303-9.33-12.994-11.956zm-105 25.989c3.875 1.457 7.274 0.75 9.876-1.559 0.13-1.717-0.181-3.21 0-4.679 0.608-4.94 5.508-9.602 2.599-11.955-1.185 1.241 0.086998 4.938-2.599 4.679-1.4-2.638 2.218-4.223 1.559-7.797-0.664-0.028999-0.72-0.666-1.559-0.52-3.77 6.798-5.913 15.226-9.876 21.831zm98.242-19.752c-1.669 0.456-1.078-1.348-2.08-1.559 0.371 2.932 3.613 3.855 5.198 5.718 2.398 2.815 3.524 6.267 5.198 9.876 2.051 0.375 2.95 1.9 4.678 2.599 0.69099-0.521 1.934-0.491 2.08-1.559-3.49-6.213-4.373-15.034-13.515-15.594 0.384-1.152-1.915-2.142-2.08-1.04 0.41399 0.057999 1.577 1.718 0.521 1.559zm-85.247 25.471c3.755 0.29001 5.541-1.39 7.277-3.12-2.968-4.478 1.044-12.479 0-16.633 0.027 0.894-0.39999 1.333-1.04 1.56-1.234-0.55399 1.114-2.395-0.52-3.119-0.458 1.275-0.467 2.997-2.079 3.119-0.586-2.509 2.903-4.645 0.52-5.718-3.825 4.955-6.808 15.903-4.158 23.911zm82.646-20.793c-2.367-1.561-0.297 0.745-1.558 1.56-1.369-0.39201-2.321-3.882-4.159-2.08 6.175 5.792 7.258 19.408 18.193 18.713-2.839-8.424-5.579-16.946-12.477-21.312-1.13 1.088 0.26102 1.484 0.001007 3.119zm-101.36 6.758c4.008-0.323 6.3-2.364 9.357-3.639-0.6-1.688 1.587-3.197 0-4.158-3.538 2.18-7.656 3.78-9.357 7.797zm65.495-1.04c-3.08 3.162-9.914 5.33-9.877 9.876 3.896-5.98 12.333-7.42 13.516-16.114-1.723 1.571-2.564 4.022-3.639 6.238zm-36.906 18.194c4.096-0.756 6.128-3.574 7.277-7.277-2.302-2.897-2.187-8.209-2.08-13.515-1.77 0.385-0.856-1.915-2.079-2.079-1.031 0.356 0.324 3.097-1.56 2.599-0.378-1.181 0.936-4.055-1.04-3.639-2.334 6.702-1.831 17.8-0.518 23.911zm66.014-5.718c2.041 2.29 3.658 5.004 7.797 5.198-0.071991-1.834-1.487-2.325-1.56-4.159-0.412-3.088 0.26001-6.527-0.51999-9.356-0.85101-3.088-4.614-9.022-7.277-8.316 0.688 0.833 2.225 1.942 1.039 3.119-2.152-0.793-1.924-3.968-5.198-3.639 3.051 4.573 6.306 8.941 5.719 17.153zm-48.861 1.039c0.674-0.94-0.467-2.624 0.52-4.159-4.684-1.554-1.721-10.754-6.237-12.475 0.075996 1.29 0.096001 2.523-1.04 2.599-0.693-0.867 0.189-3.308-1.559-3.119-0.824 7.908 1.914 14.941 8.316 17.154zm37.944-9.357c0.944 4.673 0.79199 9.441 2.079 12.475 1.781 1.686 4.458 2.474 6.238 4.159-0.021011-1.712-0.877-2.588-0.52-4.679 3.604-6.198-0.20599-15.704-4.159-19.232-1.024 0.36 0.129 2.9-1.038 3.119-0.77699-0.61-0.612-2.16-2.08-2.079-0.284 0.755 0.60701 2.687-0.521 2.599-2.19 0.285 0.25301-4.064-2.078-3.639-0.38599 2.189 1.489 4.342 2.079 7.277zm-31.706 5.719c0.628-1.624 2.244-2.261 2.599-4.159-1.938-2.394-2.065-6.598-5.198-7.797-1.411-0.372 0.37199 2.451-1.04 2.079-1.367 0.154-0.409-2.016-2.079-1.559-0.087997 0.777 0.186 1.918-0.52 2.079-0.771-0.616-0.80901-1.964-1.56-2.599 0.111 4.448 2.348 11.128 7.798 11.956zm6.757-7.278c-2.298-0.422-5.719-4.859-5.718-4.158 1.397 1.561 2.716 5.931 5.718 4.158zm8.837 5.718c1.481-2.27-1.017-4.335-3.639-4.159 0.12601 2.475 2.306 2.893 3.639 4.159zm-27.549 5.198c-0.289-4.043-3.208-5.455-4.159-8.836 0.693 3.639 0.532 8.131 4.159 8.836zm23.39-7.278c-2.599 0.174-4 1.544-4.678 3.639 3.144 1.36 4.529 4.481 7.277 6.237 0.23-4.387-1.362-6.954-2.599-9.876zm2.6 17.154c0.384-7.314-5.052-8.811-7.797-12.995h-1.559c3.347 4.103 6.46 8.44 9.356 12.995zm-4.678-3.638c-0.754-3.58-3.7-4.964-5.719-7.277-3.05 3.799 3.135 5.81 5.719 7.277zm4.678 8.316c-1.619-5.659-6.956-7.598-11.436-10.396 1.932 5.346 8.195 6.36 11.436 10.396zm-10.397-3.119c-0.058006 38.926-0.578 81.547-2.079 119.55 4.094-1.078 8.937-2.821 9.875-6.237 0.804-2.921-0.67799-13.553-0.521-17.153 1.384-31.442 1.485-61.083 1.56-92.004-2.741-1.936-4.514-4.841-8.315-5.718-0.028 0.66399-0.666 0.71999-0.52 1.559zm-21.831 38.465c-0.627 1.452-1.667 2.491-3.119 3.119-1.786 0.228-2.913-0.205-4.158-0.52-1.699 0.873-7.96 3.539-8.316-0.52 5.485 1.66 9.091-2.087 12.475-4.159-0.911-0.143-2.593 1.464-3.119 0 1.384-2.775 7.435-0.881 7.797-4.678-2.775-3.499-7.012 1.828-9.876-1.04 3.405-0.58099 6.963-1.007 8.316-3.638-4.396 0.455-7.806 1.896-11.435 3.118-2.095 2.505-2.584 5.776-5.718 6.238-5.311 0.783-7.112-5.245-11.436-5.718-6.27-0.685-11.75 4.042-14.554 7.797-6.001 8.037-9.635 20.954-8.836 32.228 0.678 9.578 3.827 16.977 6.237 24.43 2.511 7.763 6.191 15.854 10.396 21.312 0.188 0.245 1.807 0.47501 2.079 1.041 1.31 2.719 5.275 6.798 6.757 7.795 1.542 1.04 3.932 1.188 5.718 2.08 1.128 0.56302 1.634 1.735 2.599 2.079 7.721 2.751 14.683 2.335 21.832-1.039v-3.639c-0.43-1.701-1.821 2.568-2.599 0.51901 0.835-1.59 2.29-2.562 4.158-3.117-0.076996-8.914 6.319-11.354 12.995-13.515-0.32301-1.93 0.845-5.351-1.04-5.718-10.308 5.112-14.753 12.708-24.95 11.435-3.542-0.44098-7.23-2.822-9.356-4.158-7.675-4.825-13.187-9.804-17.673-17.152-5.58-9.143-10.585-23.23-9.876-36.386 0.691-12.825 5.201-24.036 18.713-22.871 0.161 1.226 1.805 0.966 1.56 2.599-2.238 0.645-4.195-1.662-4.159 1.04-0.711 2.354 3.665 2.904 6.237 4.158 1.308 0.638 1.855 1.839 3.119 2.599 2.363 1.421 16.613 3.504 17.673 0-0.037003 0.123-1.688-0.293-1.04-1.04 6.541-2.642 11.531-6.836 17.674-9.876-0.467-2.373 0.865-2.946 1.039-4.678-2.376-1.783-6.762-1.555-10.916-1.56 0.728 1.563 0.759 3.774-1.04 4.158 0.447-2.354-0.574-3.238-2.079-3.639-0.29099 0.748-0.811 1.269-1.559 1.56-0.2 2.279 3.665 0.493 2.599 3.638 1.377 0.61099 3.061-0.99699 3.119 0-1.126 2.167-6.105 0.479-5.718 4.159 6.04-0.19699 7.431-5.045 14.034-4.678v1.04c-6.16 0.42302-8.368 4.799-14.554 5.197zm57.697-4.157c-2.835-0.804-5.382-1.895-7.277-3.639-0.080994 0.612 0.090012 1.475-0.521 1.56-1.661-3.347-7.983-4.274-11.955-3.638-0.437 5.114 5.138 4.219 8.317 5.718 0.521-0.69101 0.492-1.935 1.56-2.08 1.935 1.07-2.022 2.636 0.519 2.599 1.75-3.692 7.531 0.29401 9.357-0.52zm-1.558-3.64c-0.895-0.028-1.332 0.40001-1.56 1.04 2.493 0.625 5.551 0.68599 6.758 2.599-4.04 0.384 0.864 2.105-1.56 3.119-3.563-0.776-7.306-4.521-10.917-2.08 2.681 4.25 5.807 8.055 13.515 7.277 1.95-1.443-1.395-3.401 0-4.159 4.747 2.186 0.968 5.188 0 5.718-3.823 2.099-9.372-3.176-12.476-1.04-1.086-0.64499-1.952-1.512-2.598-2.599-0.556-1.942 1.29-1.481 1.038-3.119-2.87-3.626-8.636-1.139-11.434-4.679 1.686 3.859 7.41 3.678 8.836 7.797-0.007996 0.858-1.441 0.291-1.56 1.039 2.492 1.839 5.161 3.503 7.277 5.718 7.436 1.263 13.472 3.683 19.232-0.51999 0.25699-1.632-1.793-1.373-0.52-2.599 3.387 0.51799 5.931-2.01 8.837-2.08 2.354-0.055008 4.31 2.078 6.757 1.04-0.38899-6.075-9.462-0.827-10.916-2.599 2.066-1.745 5.976-1.649 9.876-1.56 5.289 3.102 8.352 7.659 9.356 14.035 2.923 18.56-3.514 31.234-11.436 40.543-2.373 2.791-4.674 5.868-7.276 7.797-3.796 2.812-8.682 4.104-12.996 7.278-1.402 1.03-2.308 3.021-3.639 4.157-1.603 1.368-3.654 1.87-5.198 3.119-3.263 2.644-5.557 6.785-9.876 7.796 0.483 7.133-2.746 11.201-5.718 16.114 2.219 1.331 4.448 0.91 6.238 0.521 6.827-1.487 16.96-5.999 21.832-9.877 6.071-4.831 12.331-11.593 16.112-18.191 1.305-2.277 2.326-5.049 3.64-7.278 1.467-2.489 3.754-4.353 5.198-6.756 1.08-1.798 1.674-4.311 2.598-6.239 2.434-5.069 5.208-10.931 6.239-16.632 2.219-12.283 0.231-28.912-4.68-35.347-2.089-2.737-9.191-6.386-12.995-6.237-3.336 0.13-7.876 4.079-11.954 4.678-2.608 0.383-5.898 0.411-8.317-2.079 1.357 0.145 2.601 0.17601 2.079-1.559-1.533-2.446-5.139-2.826-7.792-4.156zm-86.287 9.877c-1.375-1.821-1.786-2.938 0-4.679-4.193-0.903-2.565 6.745 0 4.679zm-6.758 1.039c0.979 0.43201 2.702 1.919 3.119 0-0.611-0.080994-1.475 0.089996-1.559-0.52-0.119-0.92099 0.523-2.603-1.04-2.08 0.213 1.254-0.949 1.131-0.52 2.6zm85.766-0.52h2.08c0.243-1.629-1.308-1.465-2.08-2.08v2.08zm-87.325 4.679c1.795 0.409 2.287-0.48601 2.599-1.56-1.588 0.37599-1.894-0.53101-3.119-0.52-0.117 0.983 0.586 1.147 0.52 2.08zm124.23-0.52c0.063004 1.322 0.756 2.016 2.079 2.079 0.43701-0.604 0.68501-1.393 0.51901-2.599-1.253-0.213-1.13 0.949-2.598 0.52zm-127.35 3.119c0.229 1.503 1.096 2.37 2.599 2.599 1.469-0.056 2.438-3.265 0.52-3.639-0.554 1.499-1.576 1.723-3.119 1.04zm128.91 1.039c-0.116 0.983 0.586 1.147 0.521 2.08 2.048 0.31599 2.302-1.163 2.598-2.599-1.282-0.069-2.504-0.078995-3.119 0.519zm-129.43 4.678c-0.219 2.991 1.561 3.983 3.119 5.198 0.488-1.133 1.505-6.487-0.52-6.757 0.251 2.503-1.401 3.118-2.599 1.559zm134.11-0.519c-1.38-0.00499-2.968 0.196-3.639-0.51999-0.42401 4.019 3.69 4.499 3.639 0.51999zm-3.118 4.678v3.639c2.217 0.627 3.298-2.554 2.6-3.119-0.78101 1.717-1.272-1.08-2.6-0.52zm-130.99 4.678c-0.119 1.851 0.748 2.718 2.599 2.599 1.178-0.55501 1.889-1.577 2.079-3.119-2.808-0.62498-2.755 1.608-4.678 0.52zm130.47 2.079v3.119c1.533-0.39601 4.131-2.424 3.12-3.638-0.009995 1.424-2.453 1.234-3.12 0.519zm-126.83 6.237c-0.614 0.599-1.837 0.589-3.119 0.52 0.375 2.698 3.436 2.789 5.198 1.56 0.145-1.691 0.42-6.646-2.08-7.277-0.686 1.522 0.333 2.683 9.99e-4 5.197zm125.79 3.638c2.206-0.22101 3.077-1.775 3.64-3.638-2.255 1.425-1.198-1.37-3.64-1.039 0.315 1.937-1.328 3.287 0 4.677zm-123.71 3.64h-3.119c-0.081001 1.293 0.816 1.608 1.039 2.599 4.024 1.269 5.014-5.877 2.08-6.758-0.849 0.84 0.464 2.175 0 4.159zm121.63 0.521c0.79201 0.8 3.564 0.925 3.117-1.041-1.658 0.446-1.607-0.81799-2.598-1.039-0.16299 0.702-0.73999 0.992-0.519 2.08zm-119.03 5.197c-0.126 1.605-2.587 0.87801-2.079 3.118 2.667 0.41299 3.008-1.498 3.639-3.118-0.77-1.138-1.014-2.798-2.08-3.64-1.256 1.248 1.263 1.377 0.52 3.64zm122.15-2.6c-2.37 0.80501-2.198-0.41-4.677-0.52-0.812 3.325 4.941 3.491 4.677 0.52zm-8.836 7.278c1.092 0.649 2.663 2.383 4.159 1.04-0.479-1.601-2.08-2.079-3.118-3.12-0.271 0.77-0.77 1.311-1.041 2.08zm-112.28 4.159c0.522 0.69 0.491 1.934 1.559 2.078 0.213-0.65199 0.67001-1.062 1.56-1.039 0.124-2.203-0.042-4.118-1.56-4.678 0.497 2.229-1.458 2.007-1.559 3.639zm112.8 0c-0.914 0.298-3.054-0.629-3.119 0.519 0.66701 0.714 3.108 0.90401 3.119-0.519zm-109.16 5.198c1.033 0.00499 0.661 1.417 2.079 1.037 0.083-1.641 0.017998-3.135-1.04-3.638 0.387 1.6-1.427 1-1.039 2.601zm2.598 3.117c1.632-0.244 1.373 1.399 2.599 1.561 0.159-1.685-2.126-3.577-2.599-1.561zm58.218 9.358c2.108 0.201 0.369-3.442 3.118-2.6 1.005 4.397-1.009 5.455-1.039 9.876-2.716 2.656-5.618 5.123-8.317 7.797 4.435 3.363 6.958 8.635 11.436 11.954 6.584-5.812 3.9-18.022 4.157-29.627-2.87-2.5-3.43-7.312-8.836-7.277 0.32101 3.786-0.90599 6.024-0.519 9.877zm-16.114 0.518c-10.3 2.994-13.348 21.417-5.198 28.589 4.205 0.405 6.34 2.803 8.836 4.159 1.862 1.011 4.383 1.162 5.718 2.078 3.407 2.34 5.172 6.935 7.796 10.396 0.66299 0.875 1.538 1.274 2.08 2.079 1.513 2.249 2.382 3.764 3.639 5.718 0.552 0.85898 0.88701 2.065 2.08 2.6 3.767-13.483-7.28-18.403-12.476-25.99-1.583-2.312-2.649-4.459-4.159-6.758-4.608-7.018-12.003-13.12-7.276-22.871h-1.04zm10.395 10.917c2.597 0.98901 2.76-3.437 1.04-3.641-0.436 1.126-1.345 1.775-1.04 3.641zm-4.677-0.52c1.06 0.15201 1.019 1.407 2.079 1.56-0.429-1.469 0.732-1.346 0.52-2.6-1.29-0.076996-2.523-0.097992-2.599 1.04zm0.519 6.238c0.015999 2.167 2.023 2.338 3.639 1.559 0.207-1.941-0.416-3.05-2.08-3.118 0.095001 1.132-0.425 1.653-1.559 1.559zm4.679 7.276c1.708 1.447 3.36-0.48898 3.118-2.599-0.47-0.91598-1.162-1.609-2.078-2.08 0.409 2.316-0.357 3.457-1.04 4.679zm5.718 7.278c1.623-1.899 1.57-7.604-1.561-7.797-2.404 2.44-2.3 6.646 1.561 7.797zm1.559 2.078c0.12 1.612 1.843 1.623 3.119 2.08 1.172-1.213 1.813-5.295-0.52101-5.718-1.008 1.071 0.053009 4.211-2.598 3.638zm-21.832 9.877c-0.006004 0.68799-0.911 0.47601-1.04 1.04 2.052 3.146 6.748 3.647 8.316 7.276 10.667 3.134 14.47 10.018 15.594 22.352-0.131 1.775-2.754 1.059-3.118 2.6 8.673 0.771 9.93-8.541 7.796-16.634-1.513-5.742-7.862-12.956-10.915-17.153-1.809-2.487-3.657-5.282-4.679-6.237-1.504-1.409-4.361-0.806-6.237-1.561-1.111-0.44601-2.628-2.006-3.638-2.599-1.839-1.079-2.984-2.474-4.678-2.078h-1.04c-1.898 5.435 0.59599 10.787 3.639 12.994zm25.989-5.718c0.018005 1.89 1.528 2.283 3.64 2.08 0.224-0.98999 1.119-1.306 1.039-2.601-1.824-2.319-2.223 0.65298-4.679 0.521zm3.64 6.758c0.696 0.927 3.008 1.607 4.158 0.521 0.14-2.047-0.20001-3.612-1.56-4.16 0.14101 2.219-1.897 2.261-2.598 3.639zm-32.748 0c-2.222 0.801-2.649-2.848-3.639-1.56 0.913 1.601 2.705 5.729 3.639 1.56zm34.307 3.118c0.284 0.75601-0.607 2.687 0.52 2.6 1.219-1.035 3.406-1.1 3.12-3.64-1.185 0.37799-2.656 0.465-3.64 1.04zm-32.227 3.638c1.181-0.37698 1.555-1.562 2.079-2.598-2.636 0.479-3.618 0.42899-5.198-1.04 0.298 1.955 0.909 3.595 3.119 3.638zm0.52 1.041c0.278 2.467 4.498 2.753 4.158-0.521-1.245 0.315-2.372 0.74802-4.158 0.521zm31.187 2.078c0.438 2.307 5.286 1.967 4.679-1.039-2.167-0.26099-2.292 1.518-4.679 1.039zm-22.87 0.52c-1.49 0.83402-3.951 1.743-5.198 0-0.366 4.177 5.437 3.581 5.198 0zm-2.08 4.678c1.002 1.078 2.174 1.985 3.639 2.6 1.321-1.293 3.658-4.293 2.599-6.237-1.118 3.097-4.276 2.327-6.238 3.637zm-1.56 19.753c0.955-3.462-0.761-7.249 0.521-10.916 1.909-0.517 2.936-1.914 5.197-2.079-2.618-3.966-6.239-6.929-9.876-9.877-4.762 6.458-6.135 21.351 4.158 22.872zm27.549-19.753c-0.603-0.436-1.393-0.685-2.599-0.51901-0.49901 1.911 2.554 2.066 2.599 0.51901zm-21.31 3.119c-0.246 1.633 1.398 1.373 1.559 2.598 2.899-0.393 4.146-2.437 5.197-4.676-2.189 0.754-4.127 1.763-6.756 2.078zm-17.674 1.561c-5.589 5.048-14.334 10.62-12.995 20.27 0.44 3.175 3.265 8.39 5.198 10.917 1.957 2.558 5.295 4.223 7.797 5.718 9.99e-4 -2.418-2.778-4.383-3.638-7.797-0.733-2.909-0.465-6.017-0.52-9.875 1.646-3.553 4.631-5.766 6.757-8.837-0.941-5.104-1.31-4.819-0.52-10.396h-2.079zm20.792 1.557c0.029999 4.02 6.4-0.841 3.637-1.039-0.786 0.77402-2.28 0.83701-3.637 1.039zm-1.04 2.08c-2.678-0.25299-4.356 0.495-5.718 1.56 0.205 6.424-0.313 13.778 0 18.713 2.646-0.43201 6.561-1.923 8.837-1.04 0.168-8.225 1.567-13.315-3.119-19.233zm3.12 1.56c0.40501 0.11401 0.603 0.436 0.52 1.038 2.307 0.401 2.093-1.717 3.118-2.598-1.98-0.24701-3.246 0.22-3.638 1.56zm1.557 5.718h2.601v-2.079c-1.267 0.29303-2.675 0.444-2.601 2.079zm3.121-5.198c-2.4-0.147-2.802 1.704-3.639 3.119 2.456 0.20203 3.209-1.298 3.639-3.119zm21.831 26.508c0.143-2.239-1.229-5.835-2.599-8.836-2.558-5.61-5.122-11.714-10.396-12.994-3.004 1.846-5.691 4.011-10.915 3.639 5.546 6.062 14.04 9.176 12.475 22.351-0.91299 4.096-6.892 5.366-5.198 10.396 7.701 0.22 16.169-7.249 16.633-14.556zm-43.663-3.637c2.279-0.49399 3.382-2.163 5.718-2.6v-8.836c-3.629-0.52798-5.695-2.621-7.796-4.678-4.854 2.689-2.829 15.179 2.078 16.114zm19.232-7.796c1.154 5.602 7.51 6.003 6.237 14.034 3.391-1.487 4.896-6.044 3.119-9.877-3.318-0.91803-6.231-4.753-9.356-4.157zm-26.509 4.157c0.467-0.91901 1.254-1.517 1.559-2.6-1.455 0.071014-3.594 2.109-1.559 2.6zm24.95-0.52c-4.966-1.177-10.824 2.704-13.515 4.678-5.456 4.001-11.022 9.502-9.876 17.673 1.62 2.54 4.058 4.259 7.797 4.678-5.973-6.593 3.728-13.76 8.316-16.632 6.085-3.811 9.483-3.299 11.955 1.038 3.532-4.174-0.93001-10.548-4.677-11.435zm-24.95 5.199c1.786-0.12 2.265-1.548 2.599-3.119-1.582 0.32297-2.658 1.154-2.599 3.119zm3.119 1.558c1.624 0.23801 1.661-1.11 1.559-2.599h-1.559v2.599zm19.751 3.64c1.494 0.107 2.641-0.133 3.118-1.041-1.069 0.31598-3.609-0.83902-3.118 1.041zm2.6 1.038c-1.531-0.11099-4.657 1.177-5.718 3.119-0.164 4.312 5.508 4.722 7.796 7.276 1.785 1.991 3.616 6.346 3.639 8.837 0.036987 4.013-2.571 5.182-4.157 8.836 10.208-1.942 6.707-27.464-1.56-28.068zm7.797 3.638c1.597 0.797 1.597-3.393 0-2.598v2.598zm-23.391 5.718c2.604 0.006012 3.54-1.657 4.678-3.118-0.317-0.028992-0.615-0.076996-0.52-0.521h-1.04c0.196 2.45-2.756 1.75-3.118 3.639zm6.758-1.039c1.212-0.17401 2.239-0.53198 2.599-1.56-0.972-0.41501-1.904-0.86801-3.12-1.04-0.165 1.207 0.082993 1.997 0.521 2.6zm0 3.12c2.029-0.17999 3.783 1.432 4.158-1.041-2.331 0.76602-2.32-0.28598-4.158-1.039-0.867 1.034 0.045998 0.66199 0 2.08zm-7.798 0.519c1.294 0.78601 4.554-0.057007 4.679-2.079-1.644 0.608-3.556 0.949-4.679 2.079zm11.955 60.816c0.555 0.48401 0.162 1.917 1.56 1.56 0.090996-2.886 2.268-0.474 3.637-2.08 0.899 0.31497-0.039993 2.465 1.041 2.599 0.29201-0.74902 0.811-1.268 1.56-1.56 0.14201-1.758-2.223 0.064026-2.08-2.598 1.29-1.338 1.853 0.35101 2.6 1.038 0.765-4.577-1.764-5.86-3.639-7.796-2.579-13.778-1.349-28.783 0-42.623-2.851-4.081-8.373-5.488-10.396-10.396-0.636 3.53 0.346 8.274 0 14.034 0.914 0.29898 3.054-0.62701 3.119 0.521 0.028999 0.664 0.666 0.72 0.52 1.56-0.475 0.91-0.966 1.807-2.599 1.559-1.245 0.207 0.28899-2.366-1.559-1.559 0.839 10.003 0.90501 17.584 1.04 28.069 0.315 0.896 2.466-0.040009 2.599 1.039-0.84399 2.794-4.208 3.07-3.119 7.797-1.32 1.972-3.332 3.253-4.679 5.198 0.028 3.61 1.488 5.789 4.159 6.758 0.284-0.75699-0.607-2.688 0.52-2.601 1.285 0.73001 0.917 1.791 0.52 3.119 2.528 0.983 7.275-0.30899 6.238-0.51901-2.435 0.90802-2.79-2.914-1.042-3.119zm-1.558-59.256c1.717 1.337 4.081-0.151 4.158-2.079-2.151-0.072968-2.977 1.181-4.158 2.079zm-8.838 1.039c1.777 0.21799 2.962-0.15601 2.599-2.079-1.694-0.13498-2.501 0.617-2.599 2.079zm11.436 1.559c2.236 0.159 4.195 0.036011 4.157-2.08-1.212 0.867-4.435-0.276-4.157 2.08zm3.639 3.118h2.599c-0.179-1.381-1.364-1.754-2.599-2.079v2.079zm-25.47 27.55c0.449 7.344 6.115 14.431 12.475 10.915-3.849 1.003-5.753-1.918-8.317-3.639-1.996-6.3-1.321-13.104 0.52-18.712 1.695-5.165 8.511-8.379 7.797-14.555-5.022 3.517-13.07 16.25-12.475 25.991zm35.346 4.679c0.114-0.40601 0.435-0.604 1.039-0.521 4.687-8.626 0.99-18.32-3.639-24.43-1.856 0.569-2.887 1.965-3.638 3.638 7.936 2.76 9.067 15.992 6.238 21.313zm-23.911-20.273c0.436-0.604 0.686-1.395 0.52-2.6-1.911-0.49899-2.066 2.555-0.52 2.6zm17.154 1.56c-0.409 2.001 2.488 2.001 2.079 0-1.418 0.047028-1.046-0.86697-2.079 0zm-18.194 2.078h2.08c-0.119-0.92001 0.523-2.603-1.04-2.078 0.379 1.418-1.033 1.046-1.04 2.078zm-0.519 1.041c-2.333 4.77-4.367 9.84-3.638 17.673 1.462 1.655 3.306 2.932 6.757 2.599 0.325-4.178-0.18-16.521-0.52-20.271-0.866-0.001007-1.733-0.001007-2.599-0.001007zm14.555 40.543c0.086998-0.60501 0.82101-0.564 1.558-0.51901-0.061996-1.324-0.756-2.018-2.078-2.08 0.283 0.75598-0.608 2.688 0.52 2.599z"/>
  <path d="m95.216 104.29c1.367-0.621-2.45-1.78-0.521-3.12 3.03 0.783 4.063 3.561 3.639 7.797-1.087-0.22-1.376 0.356-2.079 0.52-1.162 1.438-2.023 3.175-2.599 5.197-6.041 1.245-2.137 10.165 2.079 10.396-0.471 8.267 5.96 9.633 9.356 14.034 4.505-0.51999 6.636 1.334 9.876 2.08-1.072 2.126-5.679 0.123-6.757 0-0.392-0.044998-0.582 1.023-0.52 1.039-0.812-0.20799-0.040001-1.3-0.52-1.559-1.391-0.75-5.894-0.239-5.718-3.119-1.588-0.37498-1.894 0.53101-3.119 0.52002-0.22-1.087 0.356-1.376 0.52-2.08-1.588-0.375-1.894 0.53198-3.119 0.51999-0.146-1.359 0.19-2.236 1.559-2.079-0.901-2.635-2.438-0.602-4.678-0.52-0.243-1.629 1.307-1.465 2.079-2.079-0.071999-1.487-2.167-0.95099-3.638-1.04-0.547-1.933 1.753-1.02 2.079-2.079-0.923-1.44-3.338 1.742-4.678 0 0.535-1.718 2.752-1.753 4.678-2.079-1.521-1.305-4.255 0.577-6.237-0.52 0.612-1.467 2.577-1.582 4.158-2.08-0.72-1.185-3.618-0.194-5.198-0.52-0.039001-1.772 1.926-1.54 3.639-1.56 0.060997-2.487-1.93-2.921-4.678-2.599-0.348-2.253 2.412-1.399 4.158-1.56-0.16399-1.916-2.937-1.222-4.158-2.079 0.666-2.553 3.854 0.649 5.198-1.04-0.277-1.456-2.504-0.96-3.639-1.559 0.907-2.304 3.363 0.547 5.718 0-0.578-2.194-4.513-1.031-4.678-3.639 1.205-0.166 1.996 0.083 2.599 0.52 0.095001-1.134-0.426-1.654-1.56-1.56 1.276-2.671 3.399 0.512 5.198 0.52 1.275-2.062-2.674-2.678-4.158-3.639 1.282-2.495 3.653 1.058 5.197 1.56 0.924-2.496-4.639-2.975-5.197-5.719 2.787 0.166 4.567 1.331 5.719 3.125z"/>
 </g>
 <g stroke-dasharray="null" stroke-linecap="null" stroke-linejoin="null">
  <g stroke-width="null">
   <ellipse cx="127.08" cy="72.788" rx="24.5" ry="26"/>
   <g fill="#fff">
    <ellipse cx="126.58" cy="72.788" rx="20" ry="21"/>
    <rect x="122.58" y="49.788" width="0" height="18"/>
   </g>
  </g>
  <text x="58.577515" y="19.787994" font-family="Arial" font-size="24" stroke-width="0" text-anchor="middle"/>
  <g stroke-width="null">
   <rect x="124.58" y="47.788" width="5" height="49"/>
   <rect transform="rotate(35.374 119.37 80.865)" x="116.2" y="67.24" width="6.3336" height="27.251"/>
   <rect transform="rotate(-36.217 134.63 80.078)" x="131.48" y="67.385" width="6.3086" height="25.387"/>
  </g>
 </g>
</svg>