<?xml version="1.0" encoding="UTF-8"?>
<svg viewBox="0 0 393.24 491.03" xmlns="http://www.w3.org/2000/svg">
 <g stroke="#fff">
  <g stroke-linejoin="bevel">
   <path d="m195.55 460.53h2.142l11-392.41h-24.142l11 392.41z"/>
   <path d="m170.19 119.13c-21.71 2.3933-41.39-19.802-31.37-25.016 0.97-1.9653 0.68999-2.9873-1.63-2.6117-23.6 2.8388-38.52-14.29-35.92-32.153 0.17-1.1967-0.771-1.4412-1.53-1.4849-0.88-0.052406-1.58 0.86474-2.02 1.4849-7.33 10.324-19.75 16.605-31.08 23.226-13 7.608-33.12 17.365-41.811 18.675-7.68 1.153-19.75 2.3846-24.13-3.0834-0.899-1.3102-0.01-1.45 1.07-1.9653 14.4-6.3152 15.91-4.9177 42.3-19.505 23.16-12.805 45.51-29.628 67-39.132 9.45-4.1752 38.75-7.9923 48.97 4.28 17.41 20.911-7.029 30.021-7.729 33.716-1.35 7.1363 6.689 20.396 27.6 15.557l2.75-0.7599 0.65 25.444-0.94 0.4542c-4.08 1.7548-8.189 2.6554-12.18 2.8737z"/>
   <path d="m92.032 70.941c0.7-0.69006 3.82-2.0003 4-0.87348 0.48 2.9698 2.29 7.014 4.29 10.298 0.68 1.1093-0.81 2.5243-1.75 3.4939-13.399 9.8878-29.21 19.295-42.87 24.588-4.39 1.3364-9.26 2.0876-13.95 1.7557-3.159-0.21837-7.55-0.061134-9.069-2.4894-0.351-0.56776 0.149-1.3364 0.58-1.8518 21.21-7.642 37.469-18.394 58.769-34.922z"/>
   <path d="m100.57 86.455c0.62-0.5765 1.7-1.2578 2.93-0.81234 2.881 2.9262 4.471 4.315 7.851 5.6165 1.08 0.41053 2.45 1.712 0.649 3.0572-18.92 14.011-33.25 25.934-52.029 21.444-0.601-0.13976-0.46-1.7906 0.069-2.0614 11.141-5.6077 23.96-11.775 40.53-27.244z"/>
   <path d="m115.95 94.945c2.95-1.7382 0.49 0.39307 13.3 1.2229 1.66 0.10481-0.189 3.1794-0.77899 4.5596-5.86 7.4508-15.86 14.281-24.29 17.836-4.08 1.7295-9.58 2.6292-13.641 0.81232-0.399-0.17469-0.489-0.8036-0.72-0.99576-0.83-0.73373 5.47-4.743 11.29-9.3549 5.521-4.3857 13.201-11.74 14.84-14.08z"/>
   <path d="m223.04 119.13c21.71 2.3933 41.39-19.802 31.37-25.016-0.97099-1.9653-0.68999-2.9873 1.63-2.6117 23.6 2.8388 38.52-14.29 35.92-32.153-0.17001-1.1967 0.76999-1.4412 1.529-1.4849 0.88098-0.052406 1.58 0.86474 2.021 1.4849 7.33 10.324 19.75 16.605 31.08 23.226 13 7.608 33.12 17.365 41.81 18.675 7.681 1.153 19.75 2.3846 24.13-3.0834 0.90002-1.3102 0.011017-1.45-1.069-1.9653-14.4-6.3152-15.91-4.9177-42.3-19.505-23.16-12.805-45.511-29.628-67-39.132-9.45-4.1752-38.75-7.9923-48.971 4.28-17.41 20.911 7.03 30.021 7.73 33.716 1.35 7.1363-6.69 20.396-27.601 15.557l-2.75-0.7599-0.649 25.444 0.939 0.4542c4.08 1.7548 8.191 2.6554 12.181 2.8737z"/>
   <path d="m301.2 70.941c-0.70001-0.69006-3.82-2.0003-4-0.87348-0.48001 2.9698-2.29 7.014-4.29 10.298-0.681 1.1093 0.81 2.5243 1.75 3.4939 13.399 9.8878 29.21 19.295 42.869 24.588 4.391 1.3364 9.261 2.0876 13.95 1.7557 3.16-0.21837 7.55-0.061134 9.07-2.4894 0.35001-0.56776-0.14999-1.3364-0.58002-1.8518-21.209-7.642-37.469-18.394-58.769-34.922z"/>
   <path d="m292.66 86.455c-0.62-0.5765-1.7-1.2578-2.931-0.81234-2.88 2.9262-4.47 4.315-7.85 5.6165-1.08 0.41053-2.45 1.712-0.64999 3.0572 18.92 14.011 33.25 25.934 52.03 21.444 0.60001-0.13976 0.45999-1.7906-0.070007-2.0614-11.139-5.6077-23.96-11.775-40.529-27.244z"/>
   <path d="m277.28 94.945c-2.949-1.7382-0.48901 0.39307-13.3 1.2229-1.66 0.10481 0.18997 3.1794 0.78 4.5596 5.86 7.4508 15.86 14.281 24.29 17.836 4.08 1.7295 9.58 2.6292 13.64 0.81232 0.39999-0.17469 0.48999-0.8036 0.72101-0.99576 0.82898-0.73373-5.471-4.743-11.29-9.3549-5.52-4.3857-13.2-11.74-14.841-14.08z"/>
  </g>
  <path d="m196.61 32.5c10.16 0 18.41 7.2062 18.41 16.081s-8.25 16.072-18.41 16.072-18.399-7.1974-18.399-16.072 8.239-16.081 18.399-16.081z"/>
 </g>
 <g stroke-linejoin="bevel">
  <path d="m201.5 41.811c-0.88-1.2928 0.37-3.6162 3.13-2.8388 10.66 4.2276 5.4 20.5-6.38 20.046-1.81 0.043678-2.39-1.4936-1.04-2.3234 5.15-3.0572 9.48-7.5468 4.29-14.884z" fill="#fff" stroke="#000" stroke-width=".5"/>
  <g stroke="#fff">
   <path d="m260.69 160.75c1.189-11.574-9.47-24.824-26.46-26.108-5.91-0.44546-14.79-0.48041-19.93 3.5638-4.87 3.8346 7.859 11.844 14.54 12.421 8.949 0.76868 13.659-2.9873 15.26-5.171 0.55-0.73372 1.54-0.43674 1.89 0.31445 4.06 26.477-26.827 32.512-49.365 38.084 4.668 1.1539 8.978 2.2885 12.545 3.5804 6.315 2.2894 11.71 4.7543 16.313 7.3416 17.681-7.9827 33.649-18.741 35.207-34.026z"/>
   <path d="m177.64 392.62c-10.69 9.5297-9.85 23.689 1.8 33.821-1.8-10.42-6.21-18.264 7.18-27.82 3.354-2.3959 6.631-4.1298 10.003-5.7833-3.78-1.8544-7.685-3.6101-11.957-6.0873-2.699 2.1995-5.144 4.1945-7.026 5.8698z"/>
   <path d="m218.29 266.6c-6.986-3.88-14.61-7.3092-21.666-10.76-4.123-2.0168-8.052-4.0407-11.544-6.1685-19.95-12.15-20.11-32.843 8.97-42.975 0.839-0.29173 1.7-0.59135 2.574-0.89442-8.702-3.017-19.041-6.593-28.858-11.025-35.285 19.826-23.452 46.852-12.766 57.584 5.244 5.2575 12.371 9.8746 19.957 14.238 7.218 4.1517 14.846 8.0736 21.667 12.097 5.177 3.0528 9.89 6.1633 13.596 9.4781 13.09 11.713 2.3 24.85-3.11 28.397-3.36 2.2003-6.904 4.1744-10.486 6.1091 7.544 4.0713 15.253 7.9635 21.811 13.354 8.746-5.9344 16.653-13.498 21.025-23.602 10.082-23.308-3.5-36.018-21.17-45.832z"/>
   <path d="m225.48 194.78c-4.604-2.5864-9.998-5.0522-16.313-7.3416-3.567-1.2919-7.877-2.4256-12.545-3.5804-22.537-5.5719-53.424-11.608-49.364-38.084 0.35001-0.7512 1.34-1.0482 1.88-0.31445 1.6 2.1837 6.31 5.9396 15.27 5.171 6.681-0.57651 19.41-8.5863 14.54-12.421-5.14-4.0442-14.02-4.0093-19.93-3.5638-16.99 1.284-27.65 14.535-26.47 26.108 1.564 15.285 17.533 26.044 35.216 34.026 9.817 4.432 20.156 8.0081 28.858 11.025 0.875 0.30308 1.736 0.60181 2.575 0.89442 29.08 10.132 28.92 30.825 8.97 42.975-3.492 2.1278-7.421 4.1516-11.545 6.1685 7.056 3.4502 14.68 6.8795 21.666 10.76 7.584-4.363 14.709-8.9811 19.949-14.238 10.695-10.733 22.53-37.759-12.757-57.585z"/>
   <path d="m215.61 392.62c-1.883-1.6753-4.328-3.6712-7.027-5.8715-3.752-3.058-7.995-6.5161-11.958-10.1-2.786-2.5209-5.434-5.0985-7.654-7.6394-9.3-10.63-0.25-17.461 6.87-20.762 0.25899-0.12054 0.52199-0.24286 0.78499-0.36426-6.839-3.1794-14.607-6.959-21.81-11.846-1.496 1.229-2.937 2.5305-4.296 3.9376-12.41 12.84-9.17 28.109 0 36.38 5.247 4.7307 9.88 7.9216 14.146 10.394 4.272 2.4772 8.177 4.2329 11.957 6.0872 3.371 1.6544 6.646 3.3873 9.997 5.7833 13.4 9.555 8.99 17.4 7.19 27.82 11.65-10.131 12.491-24.29 1.8-33.819z"/>
   <path d="m222.73 339.97c-1.359-1.4063-2.8-2.7086-4.296-3.9376-6.558-5.3902-14.267-9.2824-21.811-13.354-3.584-1.9348-7.13-3.9097-10.493-6.1091-5.4-3.5463-16.2-16.683-3.101-28.397 3.705-3.3148 8.419-6.4244 13.595-9.4781-6.821-4.0224-14.449-7.9452-21.667-12.097-17.669 9.8135-31.25 22.524-21.167 45.831 4.372 10.104 12.279 17.669 21.025 23.602 7.202 4.8871 14.971 8.6667 21.81 11.846 0.26199 0.1214 0.52499 0.24371 0.784 0.36426 7.12 3.3009 16.17 10.132 6.87 20.762-2.221 2.5409-4.868 5.1185-7.655 7.6394 3.963 3.5839 8.206 7.042 11.958 10.1 4.265-2.4719 8.898-5.6627 14.147-10.393 9.17-8.2718 12.411-23.541 9.92e-4 -36.381z"/>
  </g>
 </g>
</svg>
