<?xml version="1.0" encoding="UTF-8"?>
<svg viewBox="0 0 640 480" xmlns="http://www.w3.org/2000/svg">
 <g opacity=".75">
  <path d="m467.59 102.9c-5.7607-20.872-11.517-41.745-17.278-62.617-1.0503-3.8137-2.1055-7.6294-3.1559-11.445-0.81619-2.9547-5.0628-3.2908-7.9468-4.8076-7.5493-3.9714-18.018-8.8142-26.856-8.8142-7.7267 0-17.611 9.9368-23.32 14.112-7.8096 5.7122-11.623 14.495-14.006 22.878-2.3256 8.1897 3.6126 16.199-0.59378 24.785-3.9983 8.1585-13.897 14.288-23.109 17.317-19.911 6.5464-41.002 6.8721-60.96-0.17844-8.7014-3.073-18.572-7.8784-23.634-15.143-5.465-7.8411-2.7254-17.089-2.7254-25.681 0-9.1628-4.9706-16.539-11.479-23.386-2.5669-2.7015-7.14-6.1583-10.329-8.3266-2.0393-1.386-10.686-7.175-12.728-7.175-9.8677 0-19.248 3.2722-27.699 7.7228-1.2538 0.6619-8.5926 3.988-8.77 4.681-0.90134 3.5024-1.8051 7.007-2.7064 10.512-3.3737 13.107-6.7496 26.214-10.123 39.322-1.4053 5.4528-2.8082 10.904-4.2111 16.356-0.388 1.5085-2.555 5.9758-1.9281 7.4946 0.78784 1.9172 6.7142 4.6872 8.4696 5.9114 6.3948 4.4631 12.79 8.9284 19.184 13.394 3.8776 2.7078 12.735 11.796 17.975 11.777 51.096-0.17844 102.19-0.3569 153.29-0.53534 22.201-0.078827 44.401-0.15561 66.6-0.23239 5.9382-0.020737 5.8531 0.43366 9.4182-3.9963 4.2065-5.2288 8.4152-10.456 12.622-15.684 1.9447-2.409 5.3964-5.347 5.9973-8.2395"/>
  <path d="m467.59 102.9c-5.7607-20.872-11.517-41.745-17.278-62.617-1.0503-3.8137-2.1055-7.6294-3.1559-11.445-0.81619-2.9547-5.0628-3.2908-7.9468-4.8076-7.5493-3.9714-18.018-8.8142-26.856-8.8142-7.7267 0-17.611 9.9368-23.32 14.112-7.8096 5.7122-11.623 14.495-14.006 22.878-2.3256 8.1897 3.6126 16.199-0.59378 24.785-3.9983 8.1585-13.897 14.288-23.109 17.317-19.911 6.5464-41.002 6.8721-60.96-0.17844-8.7014-3.073-18.572-7.8784-23.634-15.143-5.465-7.8411-2.7254-17.089-2.7254-25.681 0-9.1628-4.9706-16.539-11.479-23.386-2.5669-2.7015-7.14-6.1583-10.329-8.3266-2.0393-1.386-10.686-7.175-12.728-7.175-9.8677 0-19.248 3.2722-27.699 7.7228-1.2538 0.6619-8.5926 3.988-8.77 4.681-0.90134 3.5024-1.8051 7.007-2.7064 10.512-3.3737 13.107-6.7496 26.214-10.123 39.322-1.4053 5.4528-2.8082 10.904-4.2111 16.356-0.388 1.5085-2.555 5.9758-1.9281 7.4946 0.78784 1.9172 6.7142 4.6872 8.4696 5.9114 6.3948 4.4631 12.79 8.9284 19.184 13.394 3.8776 2.7078 12.735 11.796 17.975 11.777 51.096-0.17844 102.19-0.3569 153.29-0.53534 21.957-0.076752 43.916-0.15353 65.876-0.2303 4.2584-0.014542 6.2292 0.86522 8.6659-2.1641 6.6976-8.3204 13.395-16.643 20.093-24.965" stroke="#000" stroke-linecap="square" stroke-miterlimit="10" stroke-width=".1"/>
  <path d="m311.27 152.31c-8.2945-6.2745-22.839-5.9633-33.093-4.8428-11.742 1.2802-24.545 0.058105-36.386 0.058105-11.964 0-24.008-0.2137-35.944-0.79263-6.1605-0.2988-33.9-2.245-22.724-11.956-11.022 4.8262-39.892 5.0358-38.174-11.163-9.2242 2.3114-18.65 3.2825-28.179 1.5956-6.3309-1.1225-24.666-6.009-17.263-14.346-9.1391-0.50214-56.093-3.961-39.081-20.726-8.9143-1.1723-18.865-3.8863-26.93-7.424-8.1738-3.5854-17.857-6.3347-24.538-12.205-3.622-3.185-7.1329-6.204-0.54411-8.5175 5.659-1.9898 10.996-2.1454 17.036-2.1454 11.337 0 22.336 0.52702 33.732 0.11204 42.199-1.5437 82.609-11.082 120.3-27.609 4.5446-1.9919 9.0893-3.9859 13.634-5.9778-6.7425 7.5921 6.636 12.528 13.064 13.466 7.4475 1.0873 15.364-0.25728 22.383-2.3073 0 5.845-0.52527 10.7 4.5376 15.145 3.2908 2.8883 11.032 4.237 15.449 2.3944 1.2396 8.6918 1.9258 17.95 7.1802 25.638 5.7654 8.4304 12.785 14.595 22.281 19.803 14.003 7.6772 38.759 10.503 53.249 8.7602 16.435-1.9753 41.009-8.1855 49.27-22.66 5.2261-9.1566 7.9349-17.639 9.4703-27.766 0.63165-4.1685 5.5808-1.4213 9.4182-2.1828 3.8822-0.77185 8.9167-3.5917 10.232-6.9966 1.4834-3.8428 1.4313-6.5837 0.68375-10.538 11.796 1.7222 41.536 6.1646 36.353-11.956 19.35 8.4843 38.487 16.321 58.88 22.716 19.771 6.1999 41.678 8.308 62.488 10.043 10.334 0.86111 20.937 1.7139 31.311 1.5147 10.201-0.19506 22.347-2.0438 32.005 1.3466 11.358 3.988-8.6447 13.987-12.922 16.191-7.7811 4.0108-16.887 6.3928-25.437 8.7644-4.5944 1.274-8.8694 2.3571-13.634 3.1933 7.5706 6.9219-0.71442 14.08-8.2565 16.562-9.9885 3.2867-20.268 3.5834-30.834 4.1602 7.3434 8.2187-11.197 13.474-17.514 14.267-10.135 1.2699-18.919 0.66193-28.834-1.5126 4.6299 7.563-9.1768 12.151-14.734 14.101-6.6053 2.3156-16.651-0.36105-22.527-2.9423 4.1259 6.5816 0.48267 7.6398-6.5627 10.115-5.2851 1.8591-12.988 1.5147-18.626 1.965-14.043 1.1184-28.437 1.4732-42.542 1.4732-13.083 0-26.298-0.80095-39.45-0.80095-6.0185 0-12.61 0.23862-18.24 2.3944-3.7096 1.4214-3.1039 2.4173-7.3316 2.2098-4.2112-0.20747-8.434-0.41501-12.657-0.62042"/>
  <path d="m311.27 152.31c-8.2945-6.2745-22.839-5.9633-33.093-4.8428-11.742 1.2802-24.545 0.058105-36.386 0.058105-11.964 0-24.008-0.2137-35.944-0.79263-6.1605-0.2988-33.9-2.245-22.724-11.956-11.022 4.8262-39.892 5.0358-38.174-11.163-9.2242 2.3114-18.65 3.2825-28.179 1.5956-6.3309-1.1225-24.666-6.009-17.263-14.346-9.1391-0.50214-56.093-3.961-39.081-20.726-8.9143-1.1723-18.865-3.8863-26.93-7.424-8.1738-3.5854-17.857-6.3347-24.538-12.205-3.622-3.185-7.1329-6.204-0.54411-8.5175 5.659-1.9898 10.996-2.1454 17.036-2.1454 11.337 0 22.336 0.52702 33.732 0.11204 42.199-1.5437 82.609-11.082 120.3-27.609 4.5446-1.9919 9.0893-3.9859 13.634-5.9778-6.7425 7.5921 6.636 12.528 13.064 13.466 7.4475 1.0873 15.364-0.25728 22.383-2.3073 0 5.845-0.52527 10.7 4.5376 15.145 3.2908 2.8883 11.032 4.237 15.449 2.3944 1.2396 8.6918 1.9258 17.95 7.1802 25.638 5.7654 8.4304 12.785 14.595 22.281 19.803 14.003 7.6772 38.759 10.503 53.249 8.7602 16.435-1.9753 41.009-8.1855 49.27-22.66 5.2261-9.1566 7.9349-17.639 9.4703-27.766 0.63165-4.1685 5.5808-1.4213 9.4182-2.1828 3.8822-0.77185 8.9167-3.5917 10.232-6.9966 1.4834-3.8428 1.4313-6.5837 0.68375-10.538 11.796 1.7222 41.536 6.1646 36.353-11.956 19.35 8.4843 38.487 16.321 58.88 22.716 19.771 6.1999 41.678 8.308 62.488 10.043 10.334 0.86111 20.937 1.7139 31.311 1.5147 10.201-0.19506 22.347-2.0438 32.005 1.3466 11.358 3.988-8.6447 13.987-12.922 16.191-7.7811 4.0108-16.887 6.3928-25.437 8.7644-4.5944 1.274-8.8694 2.3571-13.634 3.1933 7.5706 6.9219-0.71442 14.08-8.2565 16.562-9.9885 3.2867-20.268 3.5834-30.834 4.1602 7.3434 8.2187-11.197 13.474-17.514 14.267-10.135 1.2699-18.919 0.66193-28.834-1.5126 4.6299 7.563-9.1768 12.151-14.734 14.101-6.6053 2.3156-16.651-0.36105-22.527-2.9423 4.1259 6.5816 0.48267 7.6398-6.5627 10.115-5.2851 1.8591-12.988 1.5147-18.626 1.965-14.043 1.1184-28.437 1.4732-42.542 1.4732-13.083 0-26.298-0.80095-39.45-0.80095-6.0185 0-12.61 0.23862-18.24 2.3944-3.7096 1.4214-3.1039 2.4173-7.3316 2.2098-4.2112-0.20747-8.434-0.41501-12.657-0.62042" stroke="#000" stroke-linecap="square" stroke-miterlimit="10" stroke-width=".1"/>
  <path d="m306.73 365.94c3.1063 0.32571 4.4336-4.5732 6.364-6.3783 3.2458-3.0335 7.696-5.2931 11.614-7.5859 7.4972-4.3905 15.364-9.4222 23.263-12.894 8.7227-3.8323 16.61-7.2642 23.289-13.796 1.8879-1.8467 13.826-20.724 8.3914-20.724h-19.499c-8.2732 0-5.2734 0.045685-8.9356 5.3886-5.2307 7.6253-12.865 13.547-21.761 17.728-17.547 8.2478-33.164 15.894-42.438 32.186-3.0495 5.3574-2.1032 11.435-2.1032 17.24 7.5729-3.4547 15.146-6.9115 22.721-10.366-0.30524-0.26974-0.60565-0.53326-0.90616-0.79883"/>
  <g stroke="#000" stroke-linecap="square" stroke-miterlimit="10" stroke-width=".1">
   <path d="m352.18 303.76c0 17.213-25.139 23.992-39.085 31.086-7.3577 3.7431-16.792 10.754-21.186 17.155-5.9523 8.6731-6.9957 15.114-6.9957 25.098"/>
   <path d="m306.73 365.94c3.1063 0.32571 4.4336-4.5732 6.364-6.3783 3.0093-2.8115 7.2086-5.1188 10.906-7.173 7.4664-4.1478 14.994-9.3641 22.721-12.757 16.804-7.3846 33.623-16.74 33.623-35.07"/>
  </g>
  <path d="m308.55 418.55c-0.46844-7.3867 10.932-15.952 16.355-20.724-5.1574-2.1413-10.317-4.2847-15.475-6.4281-3.6528-1.5168-6.752 4.4051-9.2621 6.6045-5.6306 4.9341-11.474 14.19-10.71 21.347 6.364-0.26556 12.728-0.53317 19.092-0.79883"/>
  <path d="m308.55 418.55c-0.46844-7.3867 10.932-15.952 16.355-20.724-5.1574-2.1413-10.317-4.2847-15.475-6.4281-3.6528-1.5168-6.752 4.4051-9.2621 6.6045-5.6306 4.9341-11.474 14.19-10.71 21.347" stroke="#000" stroke-linecap="square" stroke-miterlimit="10" stroke-width=".1"/>
  <path d="m324.9 429.71c9.5247-1.1516 17.871-7.8742 21.82-15.145 2.9549-5.4404 1.9754-5.54-4.2702-7.1066-7.8497-1.9649-15.699-3.934-23.547-5.899-3.2506-0.81543-5.2569 3.8946-6.0518 6.6584-0.86346 3.0003-5.7276 8.9698-5.2236 11.927 0.45419 2.6517 5.7181 4.5918 8.3843 5.374 2.4344 0.71585 9.0895 5.5649 8.8883 4.1914"/>
  <g stroke="#000" stroke-linecap="square" stroke-miterlimit="10" stroke-width=".1">
   <path d="m324.9 429.71c8.9025-1.0768 25.858-11.522 23.634-20.724"/>
   <path d="m544.84 63.041c17.625 3.851 37.765 6.0131 55.823 4.044 3.6552-0.39839 23.471-3.1041 25.976-0.85693 4.4998 4.0378-16.404 12.2-19.515 13.371-6.1842 2.3239-14.351 5.7579-21.181 5.7579h-28.692c-9.0941 0-19.002-2.5895-27.912-4.1561-6.6242-1.164-20.511-2.133-25.397-6.204"/>
   <path d="m479.42 87.747c8.6399 7.0236 25.146 10.163 35.984 13.732 12.302 4.0502 26.627 4.6063 39.656 4.6063 5.5714 0 12.633-2.4526 17.258-5.1665 6.9413-4.073 0.94641-9.1836-5.3088-9.1836-14.19 0-27.28-2.7451-41.238-4.7785"/>
   <path d="m475.78 96.518c8.0201 4.2225 16.693 6.7414 25.544 9.3309 4.5564 1.3342 9.0799 2.6559 13.542 4.2204 3.2884 1.1536 10.204 1.7429 12.712 3.9859 7.5374 6.7476-14.46 6.6086-18.174 6.3741-8.7865-0.54984-15.38-3.629-23.63-5.5774"/>
   <path d="m446.7 104.49c6.442 2.8488 45.684 14.232 36.355 24.71-5.3467 6.0048-20.318 2.0355-26.7 0.166-8.7676-2.5688-16.823-5.5172-25.115-8.9346"/>
   <path d="m418.51 122.82c5.7347 4.1644 14.514 5.3491 20.911 8.7644 4.0905 2.1828 14.741 10.366 3.6387 10.366-3.5133 0-7.062 1.1765-10.916 0.79677-4.6063-0.45439-8.9427-2.0936-13.279-3.3572-9.3474-2.7223-16.783-7.8452-24.886-12.584"/>
   <path d="m464.88 39.125c10.033 4.4217 20.625 7.2373 30.89 11.159 7.0832 2.7057 22.011 10.709 5.4626 12.757-23.436 2.9008-48.589-6.841-69.99-14.352"/>
   <path d="m445.78 59.055c7.9089 3.8074 17.363 5.3844 25.456 8.7644 2.8957 1.2097 10.317 3.0045 11.822 5.5794 1.8501 3.1705-1.2113 2.741-4.76 3.7805-9.8512 2.8862-19.702-2.16-28.541-4.7432-9.9079-2.8966-19.447-8.0361-28.51-12.588"/>
   <path d="m409.42 62.244c9.1816 4.2556 19.44 7.3701 28.082 12.425 4.4477 2.6019 22.799 8.0382 21.907 13.877-1.1048 7.2373-19.028 2.4194-23.289 0.54985-9.9482-4.3656-18.5-10.704-28.51-14.896"/>
   <path d="m410.35 83.761c4.7718 4.9632 11.898 8.8848 17.261 13.553 3.1654 2.7555 9.3638 7.9718 1.8217 7.9718-12.231 0-27.808-10.615-35.447-18.332"/>
   <path d="m385.8 90.938c2.2901 3.5107 25.844 18.772 21.363 22.718-6.1888 5.4487-19.556-3.9402-25.002-6.7766"/>
   <path d="m368.53 104.49c1.8264 1.4981 15.444 16.738 8.6328 16.738-4.4383 0-14.171-1.5168-15.898-4.7827"/>
   <path d="m345.8 114.05c2.2001 3.3884 6.3711 5.5919 6.3711 9.5654 0 4.2847-4.566 6.0131-9.0941 6.3783"/>
   <path d="m359.44 136.37c-2.2972-1.1516-7.5776-1.4649-9.9931-0.39838-2.7916 1.2304-5.6069 5.5214-0.9061 6.7787"/>
   <path d="m372.17 124.41c-2.9028 1.1516-7.0099-0.056046-9.0942 2.3944-1.6064 1.8882-0.76889 4.847 1.824 5.9758 2.4439 1.0644 3.7498 2.7368 6.3616 3.5875 3.7758 1.2284 7.9325 0.79887 12.018 0.79887 6.6195 0 18.141 1.774 7.9704-5.5815-5.8127-4.2058-11.644-6.3762-19.08-6.3762"/>
  </g>
  <path d="m430.33 25.574c-7.3268 0.32783-13.033-1.1225-19.986 1.5956-7.0075 2.7389-11.86 8.005-17.275 12.752 4.4335-5.8243 8.2708-14.722 15.446-18.332 2.6663-1.3425 8.2993-2.9734 11.387-1.3466 2.2499 1.1827 10.095 6.2351 10.428 5.3304"/>
  <g stroke="#000" stroke-linecap="square" stroke-miterlimit="10" stroke-width=".1">
   <path d="m94.05 62.244c-18.051 4.5192-36.838 3.9838-55.438 3.9838-5.4437 0-21.985-3.822-25.903-0.40048-3.9888 3.4838 17.523 12.051 19.982 12.976 16.617 6.2559 31.879 6.2725 49.873 5.0566 9.4798-0.64115 18.583-1.8197 27.905-3.4589 6.6124-1.1619 20.523-2.133 25.392-6.204"/>
   <path d="m159.49 86.952c-21.214 12.02-48.324 18.332-73.418 18.332-5.808 0-13.769-2.3592-18.581-5.1686-7.3813-4.3096-1.2208-8.5735 4.7482-9.1794 14.088-1.4296 27.673-2.714 41.804-4.7848"/>
   <path d="m163.13 95.719c-8.5547 3.5398-16.528 6.6874-25.555 9.3309-4.5447 1.3321-8.9735 2.9007-13.525 4.2224-2.7515 0.79884-10.812 2.0521-12.728 3.9859-6.7188 6.7871 16.502 6.9385 20.026 6.1687 3.6055-0.78639 8.5453-0.35896 11.784-1.7865 3.0353-1.3383 7.3648-2.7306 10.909-3.5854"/>
   <path d="m192.21 103.69c-7.2867 3.1974-43.614 12.9-35.449 23.913 4.7553 6.4115 20.223 2.8613 26.7 0.96274 8.7179-2.5542 16.885-5.3304 25.108-8.9346"/>
   <path d="m220.39 122.02c-6.636 2.7679-13.76 5.3159-19.998 8.7707-4.029 2.2326-14.848 10.362-3.6362 10.362 8.6092 0 15.782 0.36314 24.344-2.6393 9.2786-3.2576 16.762-7.1045 23.831-13.304"/>
   <path d="m174.04 38.329c-3.9414 2.9547-10.386 3.712-14.978 6.1272-4.6062 2.4256-10.719 3.1393-15.588 5.2806-3.887 1.7118-10.426 2.1102-12.151 6.1272-1.4053 3.2701 2.5149 6.3804 7.0761 6.3804 24.462 0 47.538-6.4094 70.179-14.352"/>
   <path d="m193.12 58.256c-4.6464 3.3863-15.139 5.7081-20.876 6.9655-6.2386 1.3674-13.156 4.9715-17.299 8.9781 7.2251 4.6105 23.261 3.0688 30.684-0.84242 10.372-5.4632 22.324-8.9844 32.934-14.302"/>
   <path d="m229.48 61.443c-7.7362 5.3865-19.612 8.6026-28.517 12.506-4.2324 1.8571-22.88 9.0591-20.564 14.597 2.7751 6.6418 20.18 1.1142 24.644-0.84243 8.3986-3.6809 19.381-8.7706 26.26-14.304"/>
   <path d="m228.57 82.966c-4.7293 4.8449-11.476 7.895-16.367 12.75-1.7554 1.7429-9.1698 8.7707-2.7207 8.7707 14.053 0 27.242-11.144 36.35-19.131"/>
   <path d="m253.1 90.141c-4.055 8.6441-20.902 12.422-20.902 22.716 0 2.8488 10.35 0.29878 12.021-0.19297 5.1242-1.5002 8.796-4.1063 12.52-7.3804"/>
   <path d="m270.38 103.69c-2.186 3.1995-13.622 13.865-9.0894 16.738 3.9012 2.4733 14.214-3.5481 17.273-4.7826"/>
   <path d="m293.1 113.26c-1.7885 3.3365-6.364 5.4508-6.364 9.5633 0 4.0253 6.0494 4.9881 10 6.3762"/>
   <path d="m279.46 135.57c3.499-1.0167 6.4042-2.299 9.9931-0.79259 3.9059 1.6371 5.0344 4.6208 0.91318 7.1729"/>
   <path d="m266.73 123.62c8.2803-1.2906 13.731 3.4112 7.2772 8.7686-5.3207 4.4175-11.077 3.9838-18.179 3.9838-7.1187 0-18.042 0.90883-7.6155-5.9508 6.1629-4.0544 11.786-6.0069 19.428-6.0069"/>
  </g>
  <path d="m208.57 24.775c6.9885 0 14.183-1.9546 20.902 0.8009 6.584 2.6995 11.947 8.7084 16.357 13.551-3.3168-5.8201-8.4341-14.396-14.538-18.336-7.7739-5.0192-15.636 0.43574-22.721 3.9838"/>
  <path d="m260.38 238.41c-2.3019-16.902 29.958-21.27 43.535-21.899 24.401-1.1246 48.553-2.4422 72.862-4.5752 19.991-1.7554 42.556-7.8805 56.273-21.112 13.312-12.84 1.0907-38.927-16.421-44.704-19.317-6.37-38.03-12.288-57.356-2.5978-3.3358 1.6724-9.6501 3.5647-10.97 7.0277-1.5614 4.1 4.9635 6.8451 8.983 7.4344 10.587 1.5479 20.62 1.66 31.307 0.9939 9.0397-0.56439 23.242 1.7284 24.789 11.248 1.6963 10.456-7.2748 17.38-17.431 20.94-8.8244 3.0937-21.709 2.8904-31.158 4.1872-10.391 1.4254-20.739 2.2409-31.2 3.1559-9.4632 0.82996-19.22 0.13696-28.685 0.83827-10.18 0.75314-19.788 1.247-29.927 3.0211-21.295 3.7265-40.961 17.568-40.961 37.633 8.789-0.5312 17.573-1.0624 26.362-1.5914"/>
  <path d="m260.38 238.41c-2.3019-16.902 29.958-21.27 43.535-21.899 24.401-1.1246 48.553-2.4422 72.862-4.5752 19.991-1.7554 42.556-7.8805 56.273-21.112 13.312-12.84 1.0907-38.927-16.421-44.704-19.317-6.37-38.03-12.288-57.356-2.5978-3.3358 1.6724-9.6501 3.5647-10.97 7.0277-1.5614 4.1 4.9635 6.8451 8.983 7.4344 10.587 1.5479 20.62 1.66 31.307 0.9939 9.0397-0.56439 23.242 1.7284 24.789 11.248 1.6963 10.456-7.2748 17.38-17.431 20.94-8.8244 3.0937-21.709 2.8904-31.158 4.1872-10.391 1.4254-20.739 2.2409-31.2 3.1559-9.4632 0.82996-19.22 0.13696-28.685 0.83827-10.18 0.75314-19.788 1.247-29.927 3.0211-21.295 3.7265-40.961 17.568-40.961 37.633" stroke="#000" stroke-linecap="square" stroke-miterlimit="10" stroke-width=".1"/>
  <path d="m304.01 243.18c-1.5141-61.909-3.0306-123.82-4.5447-185.73 12.723 0.26558 25.446 0.53117 38.17 0.79883-1.2681 36.734-2.5361 73.466-3.8066 110.2-0.72156 20.872-1.4408 41.743-2.1623 62.615-0.13013 3.7452-0.2579 7.4883-0.388 11.234-0.01416 0.41287-24.585 0.80298-27.268 0.87974"/>
  <path d="m304.01 243.18c-1.5141-61.909-3.0306-123.82-4.5447-185.73 12.723 0.26558 25.446 0.53117 38.17 0.79883-2.1198 61.378-4.2395 122.76-6.3592 184.13" stroke="#000" stroke-linecap="square" stroke-miterlimit="10" stroke-width=".1"/>
  <path d="m329.45 304.56c-1.3344 42.758-2.671 85.52-4.0053 128.28-0.4826 15.425-0.96286 30.846-1.4454 46.268-0.054413 1.7264-11.663 0.45654-12.692 0.22824-1.6111-0.35477-0.98889-2.0168-1.0244-3.3655-0.20346-7.7809-0.40689-15.562-0.61035-23.345-0.91794-35.089-1.8335-70.18-2.7538-105.27-0.3241-12.377-0.64581-24.754-0.96994-37.131-0.011841-0.47516-0.39038-4.8574 0.082764-4.874 7.8072-0.26144 15.612-0.52493 23.419-0.78848"/>
  <g stroke="#000" stroke-linecap="square" stroke-miterlimit="10" stroke-width=".1">
   <path d="m329.45 304.56c-1.3344 42.758-2.671 85.52-4.0053 128.28-0.4826 15.425-0.96286 30.846-1.4454 46.268-0.054413 1.7264-11.663 0.45654-12.692 0.22824-1.6111-0.35477-0.98889-2.0168-1.0244-3.3655-0.20346-7.7809-0.40689-15.562-0.61035-23.345-1.2822-49.088-2.5669-98.177-3.8492-147.27"/>
   <path d="m299.46 69.415c10.932 5.7496 25.962 6.6688 37.259 0.79884"/>
  </g>
  <path d="m318.54 63.834c18.893 0 34.541-12.497 34.541-29.491 0-18.361-16.402-30.294-36.457-30.294-17.677 0-35.343 15.894-32.298 31.976 1.3816 7.2954 3.3477 16.506 11.276 20.679 3.8443 2.0272 19.667 11.3 22.939 7.1294"/>
  <path d="m318.54 63.834c18.893 0 34.541-12.497 34.541-29.491 0-17.444-15.538-30.294-35.106-30.294-18.394 0-34.332 13.717-33.968 30.294 0.39981 18.128 16.007 27.576 34.534 30.288" stroke="#000" stroke-linecap="square" stroke-miterlimit="10" stroke-width=".1"/>
  <path d="m341.26 388.26c10.618-11.562 12.473-29.24 1.8217-41.455-12.394-14.213-34.21-16.639-47.458-29.914-7.5327-7.5506-13.386-15.429-1.6277-22.693 9.3402-5.7703 21.583-7.0319 32.395-9.0072 19.705-3.5958 40.521-7.0796 56.947-17.873 8.99-5.9073 16.019-12.3 19.877-21.778 4.1993-10.321 0.65536-17.656-5.0486-26.959-8.7392-14.255-38.177-20.033-54.896-20.033-18.981 0-39.982 0.00209-58.807-2.5791-11.5-1.577-22.967-3.4215-34.56-4.347-9.5389-0.76148-20.147-6.5422-22.896-14.966-8.117-24.891 33.512-16.392 47.801-18.479 6.9152-1.0105 23.968-3.9299 13.736-12.238-5.8483-4.7474-19.506-8.7686-27.368-8.7686-20.552 0-40.628 5.955-53.434 20.403-6.0848 6.8638-8.9948 15.952-5.8412 24.239 3.88 10.2 11.978 14.699 22.397 19.508 38.813 17.919 87.265 7.285 128.32 16.757 7.5942 1.7512 23.814 5.0275 25.058 13.624 1.6112 11.153-5.64 16.894-15.141 23.368-16.343 11.136-42.239 12.142-61.792 15.778-12.534 2.3301-32.175 9.3807-37.848 20.562-7.0288 13.858-3.0424 29.381 12.267 38.008 12.553 7.0734 25.333 13.616 37.924 20.583 6.2031 3.434 9.184 7.2332 14.086 11.555 3.0211 2.6641-0.26968 16.464-0.45184 20.33 3.7498 0.23859 14.043 6.7538 14.538 6.3762"/>
  <path d="m341.26 388.26c10.618-11.562 12.473-29.24 1.8217-41.455-12.394-14.213-34.21-16.639-47.458-29.914-7.5327-7.5506-13.386-15.429-1.6277-22.693 9.3402-5.7703 21.583-7.0319 32.395-9.0072 19.705-3.5958 40.521-7.0796 56.947-17.873 8.99-5.9073 16.019-12.3 19.877-21.778 4.1993-10.321 0.65536-17.656-5.0486-26.959-8.7392-14.255-38.177-20.033-54.896-20.033-18.981 0-39.982 0.00209-58.807-2.5791-11.5-1.577-22.967-3.4215-34.56-4.347-9.5389-0.76148-20.147-6.5422-22.896-14.966-8.117-24.891 33.512-16.392 47.801-18.479 6.9152-1.0105 23.968-3.9299 13.736-12.238-5.8483-4.7474-19.506-8.7686-27.368-8.7686-20.552 0-40.628 5.955-53.434 20.403-6.0848 6.8638-8.9948 15.952-5.8412 24.239 3.88 10.2 11.978 14.699 22.397 19.508 38.813 17.919 87.265 7.285 128.32 16.757 7.5942 1.7512 23.814 5.0275 25.058 13.624 1.6112 11.153-5.64 16.894-15.141 23.368-16.343 11.136-42.239 12.142-61.792 15.778-12.534 2.3301-32.175 9.3807-37.848 20.562-7.0288 13.858-3.0424 29.381 12.267 38.008 12.553 7.0734 25.333 13.616 37.924 20.583 6.2031 3.434 9.184 7.2332 14.086 11.555 3.0211 2.6641-0.26968 16.464-0.45184 20.33 5.1432 0.32367 10.769 4.0253 14.538 7.1729" stroke="#000" stroke-linecap="square" stroke-miterlimit="10" stroke-width=".1"/>
  <path d="m324.9 471.16c4.7837 2.2223 10.909-2.7783 10.909-6.9945 0-5.6189-0.93921-9.221-6.5604-12.52-9.6098-5.6437-18.699-9.7874-27.067-17.153-2.2498 3.7286-5.4508 8.5279-5.4508 12.726 0 5.9031 1.3603 7.4053 4.98 12.165 1.3911 1.83 8.8788 4.3054 11.38 5.4031 3.9154 1.7159 7.7811 4.0191 11.81 6.3741"/>
  <path d="m324.9 471.16c4.7837 2.2223 10.909-2.7783 10.909-6.9945 0-5.6189-0.93921-9.221-6.5604-12.52-9.6098-5.6437-18.699-9.7874-27.067-17.153-2.2498 3.7286-5.4508 8.5279-5.4508 12.726 0 5.9031 1.3603 7.4053 4.98 12.165 1.3911 1.83 8.8788 4.3054 11.38 5.4031 3.9154 1.7159 7.7811 4.0191 11.81 6.3741" stroke="#000" stroke-linecap="square" stroke-miterlimit="10" stroke-width=".1"/>
  <path d="m263.11 144.34c0.38095 0.4959-0.35486 1.0686 0.9061 0.79883 4.4477-4.2619-6.9909-3.0128-1.8193 0 1.1521 0.2469 0.6601-0.2096 0.91321-0.79883"/>
  <path d="m379.44 145.94c3.6102 0.41292 3.1465-2.1703 0.9061-2.3945-2.3421-0.23238-4.2442 2.1351-0.9061 2.3945"/>
  <path d="m342.18 35.142c5.174 7.6564-9.818 18.934-16.369 21.521 7.1494-0.86316 10.005-3.9838 14.744-8.1482 2.4842-2.1828 5.3941-11.875 1.6253-13.373"/>
  <path d="m305.82 305.36c-0.46368-15.856-0.9274-31.713-1.3911-47.569-0.047241-1.5728-1.2752-14.582 0.26736-14.626 8.8575-0.2594 17.715-0.51666 26.57-0.77396-0.44724 15.35-0.89905 30.7-1.3462 46.053-0.078003 2.658 1.6277 14.053-0.47073 16.12-1.1332 1.1143-10.121 0.34238-11.815 0.39841-3.9391 0.13278-7.8758 0.26349-11.815 0.39835"/>
  <g stroke="#000" stroke-linecap="square" stroke-miterlimit="10" stroke-width=".1">
   <line x1="331.27" x2="329.45" y1="241.59" y2="304.56"/>
   <line x1="305.82" x2="304.01" y1="305.36" y2="243.18"/>
  </g>
  <path d="m380.35 303.76c-6.4137-28.194-42.393-33.352-69.978-37.462-15.148-2.2575-26.662-5.318-38.868-13.875-1.6277-1.1412-11.99-13.97-11.308-14.012-8.7251 0.52702-17.448 1.052-26.17 1.579 2.2333 6.8472 3.8776 12.331 9.2645 17.848 5.2591 5.3886 10.916 9.36 17.632 13.286 12.629 7.3888 29.277 10.982 43.98 13.402 12.806 2.1102 29.272 2.9983 40.008 10.068 2.5834 1.6993 5.5194 2.9339 6.6052 5.8014 1.0647 2.8219 0.64825 4.1623 4.1639 4.1623 3.8113 0.002014 23.703 1.635 24.67-0.79678"/>
  <g stroke="#000" stroke-linecap="square" stroke-miterlimit="10" stroke-width=".1">
   <path d="m234.02 240c3.7002 11.346 8.9924 19.803 19.998 27.1 10.246 6.7932 23.175 11.279 35.444 14.35 19.187 4.8034 56.155 3.4008 63.619 23.117"/>
   <path d="m380.35 303.76c-11.682-51.348-99.392-20.118-119.96-65.36"/>
  </g>
  <path d="m325.81 409.78c5.3727-6.231-17.1-10.557-21.806-12.752-6.8679-3.2057-17.14-9.7064-18.5-16.828-0.89896-4.6976 2.7159-4.6084 7.4049-6.7476 4.9066-2.2388 9.8157-4.4777 14.722-6.7165-3.3973 8.2394 4.2537 10.005 11.616 12.161 7.8095 2.2886 13.925 5.8098 21.108 8.9615 5.6377 2.4754 9.3568 11.676 9.087 17.141-0.2626 5.3512-3.4398 4.0772-8.9521 4.2785-4.8901 0.17844-9.7874 0.4419-14.68 0.50208"/>
  <g stroke="#000" stroke-linecap="square" stroke-miterlimit="10" stroke-width=".1">
   <path d="m348.54 408.98c6.5722-10.171-7.315-20.496-15.448-24.712-6.0305-3.1248-11.576-4.3905-18.179-6.3741-6.4041-1.9256-9.695-5.3014-7.2795-11.161"/>
   <path d="m325.81 409.78c3.8255-4.4362-8.6801-9.5632-13.175-9.5632-11.841 0-26.002-14.116-27.722-23.117"/>
  </g>
  <path d="m289.46 419.35c2.9194 16.483 26.511 26.768 41.813 33.483 1.3508-4.3345 4.5423-6.1646 4.5423-11.339 0-6.0111-7.6131-9.3745-12.728-11.781-5.2569-2.4733-9.061-6.7123-13.632-9.5633-2.7041-1.6869-3.2459-1.5001-7.625-1.3155-4.1212 0.17224-8.2471 0.34439-12.371 0.51663"/>
  <path d="m289.46 419.35c2.9194 16.483 26.511 26.768 41.813 33.483 0.86346-2.7722 4.5423-4.6022 4.5423-7.7975 0-5.3471-1.1284-7.5444-5.4532-11.339-6.5106-5.7122-18.207-6.87-21.813-15.145" stroke="#000" stroke-linecap="square" stroke-miterlimit="10" stroke-width=".1"/>
 </g>
</svg>
