<?xml version="1.0" encoding="UTF-8"?>
<svg viewBox="0 0 640 480" xmlns="http://www.w3.org/2000/svg">
 <g fill="#999">
  <path d="m343.1 157.88c7.687-21.715 27.053-29.03 44.164-16.785 23.411 16.753 45.57 36.83 58.981 64.415 10.249 21.082 19.926 42.997 19.99 67.546 0.090546 34.899 1.5106 69.96-1.4784 104.78-1.4436 16.816-11.349 34.247-28.954 33.365-20.144-1.0086-40.672-1.9054-59.341-11.858-16.121-8.5944-34.318-16.306-44.612-32.054-12.336-18.873-7.0013-45.081-10.753-67.529-6.8687-41.096 6.0561-81.735 14.11-121.49 1.4998-7.4036 5.3958-13.331 7.8934-20.386z"/>
  <path d="m277.94 157.88c-7.687-21.715-27.053-29.03-44.164-16.785-23.411 16.753-45.57 36.83-58.981 64.415-10.249 21.082-19.926 42.997-19.99 67.546-0.0905 34.899-1.5105 69.96 1.4784 104.78 1.4436 16.816 11.349 34.247 28.954 33.365 20.144-1.0086 40.672-1.9054 59.341-11.858 16.121-8.5945 34.319-16.306 44.612-32.054 12.336-18.873 7.0013-45.081 10.753-67.529 6.8687-41.096-6.0562-81.735-14.11-121.49-1.4998-7.4036-5.3958-13.331-7.8934-20.386z"/>
  <path d="m309.97 247.77l-5.0913 0.8388-5.267 4.0873-25.728 23.361-8.2487 9.4301-0.1964 9.8587 2.3568 3.0004 6.2847-0.2143 4.91-4.0721 8.2488-1.9289 0.3928 1.7145-5.892 3.8577 0.1964 1.929s4.91-0.42865 6.0884-0.42865 0.61304 0.84427 0.85077 1.0838c3.8237 5.7434-5.755 2.1528-8.1535 2.9109-12.172 0.04657 5.8929 11.152-2.3791 13.331-6.3689-7.3259-2.5336 6.108-5.9734-0.68814-2.6841-2.1786-4.3551-11.5-7.8972-7.5486-2.5664 7.231 0.027679 15.913 1.4458 23.258-3.7835 4.5217 6.0682 4.9781 8.4061 2.3384 7.4122-5.2477 10.157 1.1676 0.29748 3.6739-15.341 2.6341 1.982 8.1279 7.6421 3.7911 3.1704 6.5949-8.4686 15.958-12.687 6.1885-4.8707-5.809-1.1 14.721 2.7257 17.911 2.8781 1.6316 10.604 12.945 3.9664 9.7943-9.8408-8.8163 2.6056 11.97-4.5106 5.7481-3.457-6.2474-9.0508-11.366-11.009-18.106 1.9933-3.4876-1.6038-21.299-3.041-12.037-9.9456 11.237 10.332 24.292 4.2125 32.118-10.984-6.6861 0.10205 9.7589-8.3741 11.177-0.29462-2.7797-4.738-7.116-4.564-10.892-0.25351-6.357 2.5008-13.242-0.006195-19.19-9.6021 4.0938 0.1196 23.592-8.4452 23.789 2.2269-9.1464-8.2008-12.458-2.7496-0.64288 4.1329 7.0452-6.6099 11.064-2.6422 0.99796-3.9602-6.4985-1.8865 6.6247-5.1956 8.7709-2.4437 1.7385-4.4984-16.665 0.79498-19.376 2.9818-4.4118 11.492-5.9821 6.6918-12.738-3.1282-4.8845 1.237-9.3026 2.7543-13.898 2.1372-5.4738 4.7308-15.9-1.5381-5.8236-8.4409 7.6746-3.2024 28.233-11.79 31.056-1.5854-1.8481-8.3565 11.417-7.113 3.2836 0.25884-4.7946 5.7726-10.309-1.3074-5.4242-2.3684-6.9549 4.6747-25.861 12.275-32.713 10.321-15.103-14.222-11.886-11.452 2.2931 2.7768 11.731-11.787 16.695-9.079 26.809 1.0936 5.2177 3.0308 20.924-2.3794 18.51-4.9887-8.8103 0.71567 4.3857-1.6823 7.655-8.9002 2.5403-3.7785-12.898-7.2238-14.761-1.3317 6.8311-2.6597 13.663-4.158 20.454-3.5903-1.9425-5.5954-1.1677-8.2367 3.3277-6.1467 6.4013-1.3456-11.083-5.8949-5.1356-7.2589-0.37036 5.5366-13.057 8.5433-17.892 6.8033-3.607 5.7264-12.884 10.73-18.014 2.1605-7.8287-11.218-1.2254-10.96 5.5629-0.85642 6.1108-11.666 12.341-9.664 2.4818 9.4423-10.298-6.0596 1.3099-6.4632-5.038 5.6709-3.1028-3.0605-5.5974 3.6842-7.3832 4.5504-2.6835 15.764-0.32162 11.773-8.6736 2.3735-3.4013 7.7113 0.45898 6.9412 4.785 3.8422 3.2339 8.2381 0.19382 9.5968-4.2648 2.9619-5.5545 3.9158-8.2547-1.1784-2.3575-9.0633 2.9281-4.6297-8.2564 1.8465-9.7055-1.6319-2.3926 2.7185-5.6105 0.90006-7.363-6.7942 2.5703-12.567 7.2322-17.59 12.8-2.7202-0.56821-7.0113 1.8174-9.3237 5.7736-4.0902 2.2069-8.1865 4.7494-12.167 0.85251 1.3862-3.2785 8.4508-8.9595 2.565-9.4108-0.8589-3.8135 12.817-5.7847 3.9381-9.0386 3.1771-3.292 3.5722-5.591 7.2449-9.1977-0.48924 9.0663 9.4226 10.645 15.319 6.8581-0.65617-3.1299-10.749-1.384-6.6065-5.2014 8.5996 0.71063-0.97835-5.3266 1.6085-7.932 4.1971 1.7208 4.4256 0.36856 4.6776-3.2719 2.4158 7.6718 4.2506-4.5812 6.7139 0.7999 0.024918 4.9835-3.3064 9.5868 5.7832 7.6756 10.418-5.7622 22.014-10.544 28.156-21.986 5.8761-3.7137 10.288-10.546 16.786-12.803 6.4204-3.0781-9.5201-5.6536-12.143-0.78726-7.184 9.9195-13.707 21.976-26.121 24.861-12.526-3.426 14.396-13.684-0.25162-10.472-4.829 1.6801-6.9968 8.2052-12.725 7.5089-2.6181 0.97784-12.538-0.62454-8.7892-2.865 6.4608-3.3687-1.9512-3.4009-5.4038-2.7452-1.9706-2.1983 9.9012-6.9233 4.222-8.0441-3.6953 3.9162-14.778 5.3643-8.5711-2.591 10.241-6.5941-4.4047-6.0539-9.5284-11.44 0.52347-6.4731 7.6115-6.9229 11.985-9.0014 8.8108-1.4302 8.138 8.4811 13.455 12.552 3.084 3.7353 9.511 3.0657 11.496 0.32654-4.0835-8.1622 2.7253-11.199 9.7556-8.8156 8.045-6.8067-20.188-2.0581-16.052-6.6346 10.517-2.7032-3.2363-0.041168-2.4602-6.8337 3.7577-2.286-3.4925-10.239 1.5764-10.861 7.6462 3.4193 15.545 6.4768 22.561 11.774 4.3021 0.74533 11.471 4.3573 12.592-3.7099 4.9329-0.30426 4.6568 7.3035 9.1345 8.9874 6.4522-0.9407 10.644-6.8575 15.855-10.531 5.3764-2.7198 4.8245-5.2076 2.4012-10.126 0.4212-5.5801-8.0595-5.8218-8.1387-0.20274-2.6971 2.7366-1.9997 11.459-6.7335 8.737-7.0479-7.0861-13.713-1.7315-21.952-1.1758-9.7099-0.011749-5.177-5.1457 1.285-5.5613-1.0292-4.8108-6.8032-3.8583-10.342-4.0136-5.8027 0.46214-11.283 4.4621-16.587-0.35992-3.6124 0.019699-21.398-4.9156-10.584-6.9854 9.5145-3.5599-11.862-1.2059-9.095-9.3028 1.9611-3.324 8.5685-1.9776 10.248-0.11787-0.11641-6.6828 5.2475-5.4164 7.6339-0.84036 2.6569 0.15225 9.15 7.5221 8.8892 2.7599-2.9544-5.527 5.4032-2.6686 7.7119-1.0884 4.1901 1.43 4.6041 9.4377 9.964 7.0893 3.5291-9.3104 15.331-8.0978 22.788-5.8109 10.059 2.1945-6.4736-4.4359-9.8257-6.1909-5.4644 0.62563-13.098 5.3916-17.542 0.10504 9.7687-5.0456-9.9899-4.4535-12.025-9.5152 3.6695-5.0099 13.662-6.3426 19.354-2.9898 2.7219 2.32 11.878 4.6882 10.415 1.4362-8.4054-1.7207-12.622-10.714-20.734-12.571-3.2713 0.14244-12.353-2.5359-5.5402-4.7044 6.3509-1.0167 0.90205-6.6568-2.3602-8.4232-4.5645-1.818 4.1703-9.6655 5.5212-3.5549 1.8395 1.5145 7.4952 11.261 6.508 5.846-1.3495-4.1886-3.0911-8.5846-0.095093-12.565 4.958 2.1502 7.6452 7.5686 9.169 12.871 10.625 1.7954 14.792 16.763 25.594 19.491-5.2454-7.6924-10.215-15.617-15.908-22.932-3.376-1.5514-8.79-6.077-3.2951-8.8956 4.236 2.335 2.975-4.0207 6.6642-2.8683 5.5866 2.5353 5.8804 9.6891 9.7038 14.115 3.9945 7.8912 1.7455-7.8666-0.94208-10.184-0.59506-3.6183-7.9365-7.9593-2.4029-10.508 2.6461 1.7239 6.7153 0.85045 5.4167-5.2525 2.0682-6.3676 5.4006 4.1644 4.4464 7.3289-1.3337 3.1171 0.90997 12.532 3.0367 5.4984 0.57199-3.4879-1.7208-10.19 3.9585-9.926 1.8463 5.1226 0.93735 2.5954 4.8375 0.54576 4.5472 4.3427-2.952 6.0836-1.7675 11.359 0.081482 5.5808 4.5698-7.8117 6.8395-1.7767 2.378 4.3253-5.5317 7.7231-1.3256 11.122 2.4389-6.6188 4.7275 0.23552 8.0199 0.91348 1.0863 3.6083-8.1118 4.6273-10.588 9.6733 0.41452 5.1918-1.6979 10.06-1.3748 15.217 1.5427-0.70932 5.0716-10.447 4.5789-3.417 0.23657 3.7225 7.0258-3.5575 2.9397-5.8868 3.8461-3.588 3.551 4.2268 6.6221-0.98341 6.26 2.1168-3.3566 6.8424 2.435 9.728-1.5938 2.7453-6.4696 2.5884-7.7844 7.4683-1.5427 5.0725-8.9754 0.94757-8.9986 5.7695 0.7189 4.328 3.5715 9.9103 7.0508 11.364 4.4387-3.1979 8.3552-8.167 13.091-11.398 3.4892-3.3804 4.7126-6.164 3.2511-10.784 4.8329-3.3982-2.7554-7.9163 0.67545-11.642 0.64835-3.8846-0.44315-8.447-1.0539-11.921 0.88364-4.4939-1.5568-8.6175-0.49774-11.76 1.3909-4.1262-2.1159-7.3614 1.679-10.64-0.40634-4.6366-2.4226-7.2333-0.009308-11.76-2.8206-3.9049-1.0276-7.784-0.38492-12.363-4.4698-3.2903 1.596-6.885 0.12039-10.766-4.076-3.3416-1.1138-7.7673-1.2968-12.12-0.17447-4.1491-1.8788-8.2366 1.1924-12.124-0.57031-3.7361-5.4597-5.804-6.1241-9.8506-1.8779-11.436-6.4434-28.266-3.7388-37.153 1.1118-3.6536 9.3887-0.22758 14.083-0.34143 4.1531 2.534 8.6206 2.7512 13.514-0.16751 4.6944 0.11385 12.971-3.3122 14.083 0.34145 2.7045 8.8874-1.861 25.718-3.7388 37.153-0.66446 4.0464-5.5538 6.1144-6.1241 9.8505 3.0711 3.8871 1.3668 7.9746 1.1924 12.124-0.18304 4.3531 2.7791 8.7788-1.2968 12.12-1.4757 3.8805 2.2617 6.3625 0.12036 10.766-1.6859 3.4664 2.4357 8.4582-0.38486 12.363 2.4132 4.5263 0.39706 7.123-0.009338 11.76 3.795 3.2785 0.28815 6.5136 1.679 10.64 1.0591 3.142-1.3814 7.2657-0.49768 11.76-0.61072 3.4735-1.7022 8.036-1.0539 11.921 3.4308 3.7253-4.1576 8.2433 0.67545 11.642-1.4616 4.6203-0.23813 7.4039 3.2511 10.784 4.7358 3.231 8.6522 8.2 13.091 11.398 3.4792-1.4541 6.3319-7.0364 7.0508-11.364-0.023163-4.8219-7.4559-0.69699-8.9987-5.7695-1.3147-4.8799-6.1905-4.7231-7.7843-7.4684 5.7916-2.8856-3.825-7.6112 2.435-9.728 3.0711 5.2103 2.776-2.6046 6.6221 0.98343-4.086 2.3293 2.7032 9.6094 2.9397 5.8869-0.49274-7.0296 3.0363 2.7077 4.579 3.417 0.32312-5.1569-1.7893-10.025-1.3748-15.217-2.4761-5.0459-11.674-6.0649-10.588-9.6732 3.2924-0.67793 5.581-7.5323 8.02-0.91348 4.2061-3.3984-3.7037-6.7962-1.3256-11.122 2.2698-6.035 6.7582 7.3574 6.8396 1.7767 1.1845-5.2753-6.3148-7.0163-1.7676-11.359 3.9002 2.0497 2.9912 4.5769 4.8375-0.54573 5.6794-0.26418 3.3866 6.438 3.9586 9.9259 2.1268 7.0332 4.3704-2.3812 3.0368-5.4983-0.95419-3.1644 2.3781-13.697 4.4464-7.329-1.2986 6.103 2.7706 6.9766 5.4166 5.2526 5.5337 2.5488-1.8078 6.8897-2.4028 10.508-2.6877 2.3169-4.9366 18.075-0.94208 10.184 3.8234-4.426 4.1172-11.58 9.7037-14.115 3.6892-1.1524 2.4282 5.2032 6.6642 2.8683 5.4949 2.8188 0.080902 7.3442-3.295 8.8956-5.6934 7.3149-10.663 15.24-15.908 22.932 10.802-2.7283 14.968-17.696 25.594-19.491 1.5238-5.3028 4.211-10.721 9.169-12.871 2.9961 3.9804 1.2544 8.3764-0.095001 12.565-0.98727 5.4146 4.6684-4.3316 6.508-5.8461 1.3509-6.1106 10.086 1.7369 5.5212 3.5549-3.2622 1.7664-8.711 7.4064-2.3601 8.4231 6.813 2.1685-2.2689 4.8469-5.5401 4.7044-8.1118 1.8568-12.328 10.85-20.734 12.571-1.4624 3.2521 7.6934 0.88379 10.415-1.4362 5.6926-3.3529 15.685-2.0201 19.354 2.9898-2.0352 5.0617-21.794 4.4696-12.025 9.5152-4.4439 5.2865-12.078 0.52054-17.542-0.10507-3.352 1.755-19.885 8.3854-9.8257 6.1908 7.4573-2.2868 19.259-3.4994 22.788 5.811 5.3599 2.3484 5.7739-5.6592 9.964-7.0893 2.3088-1.5801 10.666-4.4386 7.7119 1.0884-0.26071 4.7622 6.2323-2.6077 8.8892-2.7599 2.3864-4.576 7.7503-5.8424 7.6339 0.84033 1.6793-1.8596 8.2866-3.2061 10.248 0.11789 2.7672 8.097-18.61 5.743-9.095 9.3028 10.814 2.0698-6.9716 7.005-10.584 6.9854-5.3034 4.822-10.784 0.82205-16.587 0.35989-3.5382 0.1553-9.3123-0.79716-10.342 4.0136 6.4621 0.4157 10.995 5.5501 1.285 5.5614-8.2393-0.55585-14.904-5.9104-21.952 1.1757-4.7338 2.7224-4.0364-6.0004-6.7335-8.737-0.079193-5.6191-8.56-5.3774-8.1388 0.20273-2.4234 4.9189-2.9752 7.4066 2.4012 10.126 5.2109 3.6733 9.4028 9.59 15.855 10.531 4.4777-1.6839 4.2016-9.2917 9.1345-8.9875 1.1212 8.0673 8.2901 4.4553 12.592 3.7099 7.0165-5.2974 14.915-8.3549 22.561-11.774 5.0689 0.62167-2.1813 8.575 1.5764 10.861 0.77612 6.7927-12.977 4.1305-2.4601 6.8337 4.1358 4.5764-24.097-0.17218-16.052 6.6347 7.0303-2.3831 13.839 0.65329 9.7556 8.8155 1.9844 2.7392 8.4114 3.4088 11.496-0.32651 5.3168-4.0708 4.644-13.982 13.455-12.552 4.373 2.0786 11.461 2.5283 11.984 9.0014-5.1236 5.3858-19.769 4.8455-9.5284 11.44 6.2073 7.9554-4.8758 6.5073-8.5711 2.5911-5.6792 1.1208 6.1926 5.8458 4.222 8.0441-3.4527-0.6557-11.865-0.6235-5.4038 2.7452 3.7488 2.2405-6.171 3.8428-8.7892 2.865-5.7285 0.69629-7.8962-5.8289-12.725-7.5089-14.648-3.2127 12.275 7.0455-0.25156 10.472-12.414-2.885-18.937-14.942-26.121-24.861-2.6233-4.8663-18.564-2.2908-12.143 0.78726 6.4979 2.2571 10.91 9.0895 16.786 12.803 6.1424 11.443 17.738 16.224 28.156 21.986 9.0895 1.9112 5.7582-2.6921 5.7831-7.6756 2.4634-5.381 4.2982 6.872 6.7139-0.79984 0.25204 3.6406 0.4805 4.9926 4.6776 3.2718 2.5869 2.6054-6.9911 8.6426 1.6085 7.932 4.1429 3.8174-5.9503 2.0714-6.6064 5.2014 5.8965 3.7872 15.808 2.2081 15.319-6.8582 3.6726 3.6066 4.0678 5.9057 7.2448 9.1976-8.8793 3.2539 4.7971 5.2252 3.9381 9.0386-5.8858 0.45132 1.1787 6.1323 2.565 9.4108-3.9801 3.8969-8.0764 1.3545-12.167-0.85251-2.3124-3.9562-6.6034-6.3418-9.3237-5.7736-5.0228-5.5676-10.796-10.23-17.59-12.8-1.8184 1.7524 2.532 4.9703 0.90006 7.363 6.4762 1.4493 10.91 12.634 1.8465 9.7055-5.0943-5.8972-4.1403-3.197-1.1784 2.3575 1.3586 4.4587 5.7546 7.4987 9.5967 4.2649-0.77008-4.326 4.5678-8.1864 6.9412-4.7851-3.9906 8.352 7.2225 5.9901 11.773 8.6736 6.7446 1.7858-1.9868 4.2805 3.6841 7.3832-0.4036 6.348-15.905-5.2602-6.4631 5.038 2.0015 9.8592-8.8075 3.629-9.664-2.4818 0.25888-6.7883-13.12-13.392-10.96-5.5629 5.0035 5.1294 3.9266 14.407 10.73 18.014 3.0067 4.8349 15.802 17.522 8.5433 17.892-4.5493-5.947 0.25177 11.537-5.895 5.1356-2.6413-4.4954-4.6464-5.2702-8.2367-3.3277-1.4983-6.7905-2.8263-13.622-4.1579-20.454-3.4453 1.8627 1.6764 17.301-7.2238 14.761-2.3979-3.2692 3.3064-16.465-1.6823-7.655-5.4102 2.4134-3.473-13.293-2.3794-18.51 2.7076-10.114-11.856-15.078-9.0791-26.809 2.7703-14.179-21.773-17.396-11.452-2.2931 7.6 6.8517 14.643 25.758 12.275 32.713-7.0801-4.8844-1.5662 0.62955-1.3074 5.4242 1.2435 8.133-5.5276-5.1318-7.113-3.2836-8.5876-2.8226-3.3491-23.381-11.79-31.056-6.2689-10.076-3.6753 0.34988-1.5381 5.8237 1.5172 4.5953 5.8825 9.0134 2.7543 13.898-4.8 6.7556 3.71 8.3258 6.6918 12.738 5.2933 2.7109 3.2386 21.115 0.79492 19.376-3.309-2.1464-1.2353-15.27-5.1955-8.771 3.9677 10.066-6.7751 6.0473-2.6422-0.99799 5.4512-11.815-4.9765-8.5035-2.7497 0.64298-8.5647-0.19772 1.157-19.696-8.4451-23.789-2.507 5.948 0.24738 12.833-0.006226 19.19 0.17401 3.7761-4.2693 8.1124-4.5639 10.892-8.4762-1.418 2.6101-17.863-8.3742-11.177-6.1196-7.8249 14.158-20.881 4.2125-32.118-1.4373-9.2616-5.0343 8.5494-3.0411 12.037-1.958 6.7398-7.5517 11.859-11.009 18.106-7.1162 6.222 5.3302-14.564-4.5106-5.7481-6.6372 3.1508 1.0883-8.1628 3.9664-9.7943 3.8257-3.1902 7.5963-23.72 2.7257-17.911-4.2181 9.7696-15.857 0.4064-12.687-6.1885 5.6601 4.3368 22.984-1.157 7.6422-3.791-9.8593-2.5063-7.1147-8.9216 0.29746-3.674 2.3379 2.6397 12.19 2.1834 8.406-2.3384 1.4182-7.3451 4.0122-16.027 1.4459-23.258-3.5421-3.951-5.2131 5.3699-7.8971 7.5486-3.4398 6.7962 0.39554-6.6377-5.9733 0.68814-8.2721-2.1788 9.7923-13.284-2.3791-13.331-2.3986-0.75809-10.727 2.0747-7.0926-3.9799 0.048828-0.55066-0.93323-1.6223 0.24515-1.6223s6.0884 0.42859 6.0884 0.42859l0.1963-1.9288-5.892-3.8577 0.3929-1.7146 8.2487 1.9288 4.91 4.0721 6.2848 0.2143 2.3568-3.0005-0.1964-9.8586-8.2487-9.4301-25.728-23.361-5.892-2.5719-4.7441-0.5793h3.1e-5v-3.1e-5z"/>
 </g>
</svg>
